<?xml version="1.0" encoding="utf-8"?>
<!-- Generator: Adobe Illustrator 20.1.0, SVG Export Plug-In . SVG Version: 6.00 Build 0)  -->
<svg version="1.1" xmlns="http://www.w3.org/2000/svg" xmlns:xlink="http://www.w3.org/1999/xlink" x="0px" y="0px" width="2800px"
	 height="2800px" viewBox="0 0 2800 2800" style="enable-background:new 0 0 2800 2800;" xml:space="preserve">
<style type="text/css">
	.st0{fill:#AEDBDC;}
	.st1{fill:#F29AB1;}
	.st2{fill:#5C2E46;}
	.st3{fill:#FFFFFF;}
	.st4{fill:#EA5D78;}
	.st5{fill:#95BC20;}
	.st6{fill:#CB944F;}
	.st7{fill:#EFB877;}
	.st8{fill:#28A7A8;}
	.st9{fill:#FCDD67;}
</style>
<g id="Background">
	<rect x="-68.5" y="-68.5" class="st0" width="2936.9" height="2936.9"/>
</g>
<g id="Objects">
	<g>
		<g>
			<rect x="1861.6" y="1959.5" class="st1" width="156.6" height="161.1"/>
			<path class="st2" d="M2018.2,2130.6h-156.6c-5.5,0-10-4.5-10-10v-161.1c0-5.5,4.5-10,10-10h156.6c5.5,0,10,4.5,10,10v161.1
				C2028.2,2126.1,2023.7,2130.6,2018.2,2130.6z M1871.6,2110.6h136.6v-141.1h-136.6V2110.6z"/>
		</g>
		<g>
			<rect x="966.3" y="1959.5" class="st3" width="156.6" height="161.1"/>
			<path class="st2" d="M1122.9,2130.6H966.3c-5.5,0-10-4.5-10-10v-161.1c0-5.5,4.5-10,10-10h156.6c5.5,0,10,4.5,10,10v161.1
				C1132.9,2126.1,1128.4,2130.6,1122.9,2130.6z M976.3,2110.6h136.6v-141.1H976.3V2110.6z"/>
		</g>
		<g>
			<rect x="1563.2" y="1959.5" class="st3" width="156.6" height="161.1"/>
			<path class="st2" d="M1719.8,2130.6h-156.6c-5.5,0-10-4.5-10-10v-161.1c0-5.5,4.5-10,10-10h156.6c5.5,0,10,4.5,10,10v161.1
				C1729.8,2126.1,1725.3,2130.6,1719.8,2130.6z M1573.2,2110.6h136.6v-141.1h-136.6V2110.6z"/>
		</g>
		<g>
			<rect x="1264.7" y="1959.5" class="st3" width="156.6" height="161.1"/>
			<path class="st2" d="M1421.3,2130.6h-156.6c-5.5,0-10-4.5-10-10v-161.1c0-5.5,4.5-10,10-10h156.6c5.5,0,10,4.5,10,10v161.1
				C1431.3,2126.1,1426.8,2130.6,1421.3,2130.6z M1274.7,2110.6h136.6v-141.1h-136.6V2110.6z"/>
		</g>
		<g>
			<rect x="2458.5" y="2565.5" class="st1" width="156.6" height="161.1"/>
			<path class="st2" d="M2615.1,2736.6h-156.6c-5.5,0-10-4.5-10-10v-161.1c0-5.5,4.5-10,10-10h156.6c5.5,0,10,4.5,10,10v161.1
				C2625.1,2732.1,2620.6,2736.6,2615.1,2736.6z M2468.5,2716.6h136.6v-141.1h-136.6V2716.6z"/>
		</g>
		<g>
			<rect x="667.8" y="2262.5" class="st1" width="156.6" height="161.1"/>
			<path class="st2" d="M824.4,2433.6H667.8c-5.5,0-10-4.5-10-10v-161.1c0-5.5,4.5-10,10-10h156.6c5.5,0,10,4.5,10,10v161.1
				C834.4,2429.1,829.9,2433.6,824.4,2433.6z M677.8,2413.6h136.6v-141.1H677.8V2413.6z"/>
		</g>
		<g>
			<rect x="966.3" y="2262.5" class="st1" width="156.6" height="161.1"/>
			<path class="st2" d="M1122.9,2433.6H966.3c-5.5,0-10-4.5-10-10v-161.1c0-5.5,4.5-10,10-10h156.6c5.5,0,10,4.5,10,10v161.1
				C1132.9,2429.1,1128.4,2433.6,1122.9,2433.6z M976.3,2413.6h136.6v-141.1H976.3V2413.6z"/>
		</g>
		<g>
			<rect x="1563.2" y="2262.5" class="st1" width="156.6" height="161.1"/>
			<path class="st2" d="M1719.8,2433.6h-156.6c-5.5,0-10-4.5-10-10v-161.1c0-5.5,4.5-10,10-10h156.6c5.5,0,10,4.5,10,10v161.1
				C1729.8,2429.1,1725.3,2433.6,1719.8,2433.6z M1573.2,2413.6h136.6v-141.1h-136.6V2413.6z"/>
		</g>
		<g>
			<rect x="1861.6" y="2262.5" class="st1" width="156.6" height="161.1"/>
			<path class="st2" d="M2018.2,2433.6h-156.6c-5.5,0-10-4.5-10-10v-161.1c0-5.5,4.5-10,10-10h156.6c5.5,0,10,4.5,10,10v161.1
				C2028.2,2429.1,2023.7,2433.6,2018.2,2433.6z M1871.6,2413.6h136.6v-141.1h-136.6V2413.6z"/>
		</g>
		<g>
			<rect x="2160.1" y="2262.5" class="st1" width="156.6" height="161.1"/>
			<path class="st2" d="M2316.7,2433.6h-156.6c-5.5,0-10-4.5-10-10v-161.1c0-5.5,4.5-10,10-10h156.6c5.5,0,10,4.5,10,10v161.1
				C2326.7,2429.1,2322.2,2433.6,2316.7,2433.6z M2170.1,2413.6h136.6v-141.1h-136.6V2413.6z"/>
		</g>
		<g>
			<rect x="1264.7" y="2262.5" class="st1" width="156.6" height="161.1"/>
			<path class="st2" d="M1421.3,2433.6h-156.6c-5.5,0-10-4.5-10-10v-161.1c0-5.5,4.5-10,10-10h156.6c5.5,0,10,4.5,10,10v161.1
				C1431.3,2429.1,1426.8,2433.6,1421.3,2433.6z M1274.7,2413.6h136.6v-141.1h-136.6V2413.6z"/>
		</g>
		<g>
			<rect x="70.9" y="2565.5" class="st1" width="156.6" height="161.1"/>
			<path class="st2" d="M227.5,2736.6H70.9c-5.5,0-10-4.5-10-10v-161.1c0-5.5,4.5-10,10-10h156.6c5.5,0,10,4.5,10,10v161.1
				C237.5,2732.1,233,2736.6,227.5,2736.6z M80.9,2716.6h136.6v-141.1H80.9V2716.6z"/>
		</g>
		<g>
			<rect x="667.8" y="1959.5" class="st1" width="156.6" height="161.1"/>
			<path class="st2" d="M824.4,2130.6H667.8c-5.5,0-10-4.5-10-10v-161.1c0-5.5,4.5-10,10-10h156.6c5.5,0,10,4.5,10,10v161.1
				C834.4,2126.1,829.9,2130.6,824.4,2130.6z M677.8,2110.6h136.6v-141.1H677.8V2110.6z"/>
		</g>
		<g>
			<rect x="70.9" y="1959.5" class="st1" width="156.6" height="161.1"/>
			<path class="st2" d="M227.5,2130.6H70.9c-5.5,0-10-4.5-10-10v-161.1c0-5.5,4.5-10,10-10h156.6c5.5,0,10,4.5,10,10v161.1
				C237.5,2126.1,233,2130.6,227.5,2130.6z M80.9,2110.6h136.6v-141.1H80.9V2110.6z"/>
		</g>
		<g>
			<rect x="369.4" y="2565.5" class="st1" width="156.6" height="161.1"/>
			<path class="st2" d="M526,2736.6H369.4c-5.5,0-10-4.5-10-10v-161.1c0-5.5,4.5-10,10-10H526c5.5,0,10,4.5,10,10v161.1
				C536,2732.1,531.5,2736.6,526,2736.6z M379.4,2716.6H516v-141.1H379.4V2716.6z"/>
		</g>
		<g>
			<rect x="2160.1" y="2565.5" class="st1" width="156.6" height="161.1"/>
			<path class="st2" d="M2316.7,2736.6h-156.6c-5.5,0-10-4.5-10-10v-161.1c0-5.5,4.5-10,10-10h156.6c5.5,0,10,4.5,10,10v161.1
				C2326.7,2732.1,2322.2,2736.6,2316.7,2736.6z M2170.1,2716.6h136.6v-141.1h-136.6V2716.6z"/>
		</g>
		<g>
			<rect x="369.4" y="1959.5" class="st1" width="156.6" height="161.1"/>
			<path class="st2" d="M526,2130.6H369.4c-5.5,0-10-4.5-10-10v-161.1c0-5.5,4.5-10,10-10H526c5.5,0,10,4.5,10,10v161.1
				C536,2126.1,531.5,2130.6,526,2130.6z M379.4,2110.6H516v-141.1H379.4V2110.6z"/>
		</g>
		<g>
			<rect x="1563.2" y="2565.5" class="st1" width="156.6" height="161.1"/>
			<path class="st2" d="M1719.8,2736.6h-156.6c-5.5,0-10-4.5-10-10v-161.1c0-5.5,4.5-10,10-10h156.6c5.5,0,10,4.5,10,10v161.1
				C1729.8,2732.1,1725.3,2736.6,1719.8,2736.6z M1573.2,2716.6h136.6v-141.1h-136.6V2716.6z"/>
		</g>
		<g>
			<rect x="1861.6" y="2565.5" class="st1" width="156.6" height="161.1"/>
			<path class="st2" d="M2018.2,2736.6h-156.6c-5.5,0-10-4.5-10-10v-161.1c0-5.5,4.5-10,10-10h156.6c5.5,0,10,4.5,10,10v161.1
				C2028.2,2732.1,2023.7,2736.6,2018.2,2736.6z M1871.6,2716.6h136.6v-141.1h-136.6V2716.6z"/>
		</g>
		<g>
			<rect x="1264.7" y="2565.5" class="st1" width="156.6" height="161.1"/>
			<path class="st2" d="M1421.3,2736.6h-156.6c-5.5,0-10-4.5-10-10v-161.1c0-5.5,4.5-10,10-10h156.6c5.5,0,10,4.5,10,10v161.1
				C1431.3,2732.1,1426.8,2736.6,1421.3,2736.6z M1274.7,2716.6h136.6v-141.1h-136.6V2716.6z"/>
		</g>
		<g>
			<rect x="966.3" y="2565.5" class="st1" width="156.6" height="161.1"/>
			<path class="st2" d="M1122.9,2736.6H966.3c-5.5,0-10-4.5-10-10v-161.1c0-5.5,4.5-10,10-10h156.6c5.5,0,10,4.5,10,10v161.1
				C1132.9,2732.1,1128.4,2736.6,1122.9,2736.6z M976.3,2716.6h136.6v-141.1H976.3V2716.6z"/>
		</g>
		<g>
			<rect x="667.8" y="2565.5" class="st1" width="156.6" height="161.1"/>
			<path class="st2" d="M824.4,2736.6H667.8c-5.5,0-10-4.5-10-10v-161.1c0-5.5,4.5-10,10-10h156.6c5.5,0,10,4.5,10,10v161.1
				C834.4,2732.1,829.9,2736.6,824.4,2736.6z M677.8,2716.6h136.6v-141.1H677.8V2716.6z"/>
		</g>
		<g>
			<rect x="2757" y="2262.5" class="st3" width="111.5" height="161.1"/>
			<path class="st2" d="M2868.5,2433.6H2757c-5.5,0-10-4.5-10-10v-161.1c0-5.5,4.5-10,10-10h111.5c5.5,0,10,4.5,10,10v161.1
				C2878.5,2429.1,2874,2433.6,2868.5,2433.6z M2767,2413.6h91.5v-141.1H2767V2413.6z"/>
		</g>
		<g>
			<rect x="70.9" y="2262.5" class="st1" width="156.6" height="161.1"/>
			<path class="st2" d="M227.5,2433.6H70.9c-5.5,0-10-4.5-10-10v-161.1c0-5.5,4.5-10,10-10h156.6c5.5,0,10,4.5,10,10v161.1
				C237.5,2429.1,233,2433.6,227.5,2433.6z M80.9,2413.6h136.6v-141.1H80.9V2413.6z"/>
		</g>
		<g>
			<rect x="2458.5" y="2262.5" class="st1" width="156.6" height="161.1"/>
			<path class="st2" d="M2615.1,2433.6h-156.6c-5.5,0-10-4.5-10-10v-161.1c0-5.5,4.5-10,10-10h156.6c5.5,0,10,4.5,10,10v161.1
				C2625.1,2429.1,2620.6,2433.6,2615.1,2433.6z M2468.5,2413.6h136.6v-141.1h-136.6V2413.6z"/>
		</g>
		<g>
			<rect x="2458.5" y="1959.5" class="st1" width="156.6" height="161.1"/>
			<path class="st2" d="M2615.1,2130.6h-156.6c-5.5,0-10-4.5-10-10v-161.1c0-5.5,4.5-10,10-10h156.6c5.5,0,10,4.5,10,10v161.1
				C2625.1,2126.1,2620.6,2130.6,2615.1,2130.6z M2468.5,2110.6h136.6v-141.1h-136.6V2110.6z"/>
		</g>
		<g>
			<rect x="2160.1" y="1959.5" class="st1" width="156.6" height="161.1"/>
			<path class="st2" d="M2316.7,2130.6h-156.6c-5.5,0-10-4.5-10-10v-161.1c0-5.5,4.5-10,10-10h156.6c5.5,0,10,4.5,10,10v161.1
				C2326.7,2126.1,2322.2,2130.6,2316.7,2130.6z M2170.1,2110.6h136.6v-141.1h-136.6V2110.6z"/>
		</g>
		<g>
			<rect x="2757" y="1959.5" class="st1" width="111.5" height="161.1"/>
			<path class="st2" d="M2868.5,2130.6H2757c-5.5,0-10-4.5-10-10v-161.1c0-5.5,4.5-10,10-10h111.5c5.5,0,10,4.5,10,10v161.1
				C2878.5,2126.1,2874,2130.6,2868.5,2130.6z M2767,2110.6h91.5v-141.1H2767V2110.6z"/>
		</g>
		<g>
			<rect x="369.4" y="2262.5" class="st1" width="156.6" height="161.1"/>
			<path class="st2" d="M526,2433.6H369.4c-5.5,0-10-4.5-10-10v-161.1c0-5.5,4.5-10,10-10H526c5.5,0,10,4.5,10,10v161.1
				C536,2429.1,531.5,2433.6,526,2433.6z M379.4,2413.6H516v-141.1H379.4V2413.6z"/>
		</g>
		<g>
			<rect x="2757" y="2565.5" class="st1" width="111.5" height="161.1"/>
			<path class="st2" d="M2868.5,2736.6H2757c-5.5,0-10-4.5-10-10v-161.1c0-5.5,4.5-10,10-10h111.5c5.5,0,10,4.5,10,10v161.1
				C2878.5,2732.1,2874,2736.6,2868.5,2736.6z M2767,2716.6h91.5v-141.1H2767V2716.6z"/>
		</g>
		<g>
			<rect x="-68.5" y="1959.5" class="st3" width="139.4" height="161.1"/>
			<path class="st2" d="M70.9,2130.6H-68.5c-5.5,0-10-4.5-10-10v-161.1c0-5.5,4.5-10,10-10H70.9c5.5,0,10,4.5,10,10v161.1
				C80.9,2126.1,76.5,2130.6,70.9,2130.6z M-58.5,2110.6H60.9v-141.1H-58.5V2110.6z"/>
		</g>
		<g>
			<rect x="-68.5" y="2262.5" class="st3" width="139.4" height="161.1"/>
			<path class="st2" d="M70.9,2433.6H-68.5c-5.5,0-10-4.5-10-10v-161.1c0-5.5,4.5-10,10-10H70.9c5.5,0,10,4.5,10,10v161.1
				C80.9,2429.1,76.5,2433.6,70.9,2433.6z M-58.5,2413.6H60.9v-141.1H-58.5V2413.6z"/>
		</g>
		<g>
			<rect x="-68.5" y="2565.5" class="st3" width="139.4" height="161.1"/>
			<path class="st2" d="M70.9,2736.6H-68.5c-5.5,0-10-4.5-10-10v-161.1c0-5.5,4.5-10,10-10H70.9c5.5,0,10,4.5,10,10v161.1
				C80.9,2732.1,76.5,2736.6,70.9,2736.6z M-58.5,2716.6H60.9v-141.1H-58.5V2716.6z"/>
		</g>
		<g>
			<rect x="227.5" y="2565.5" class="st3" width="141.9" height="161.1"/>
			<path class="st2" d="M369.4,2736.6H227.5c-5.5,0-10-4.5-10-10v-161.1c0-5.5,4.5-10,10-10h141.9c5.5,0,10,4.5,10,10v161.1
				C379.4,2732.1,374.9,2736.6,369.4,2736.6z M237.5,2716.6h121.9v-141.1H237.5V2716.6z"/>
		</g>
		<g>
			<rect x="227.5" y="1959.5" class="st3" width="141.9" height="161.1"/>
			<path class="st2" d="M369.4,2130.6H227.5c-5.5,0-10-4.5-10-10v-161.1c0-5.5,4.5-10,10-10h141.9c5.5,0,10,4.5,10,10v161.1
				C379.4,2126.1,374.9,2130.6,369.4,2130.6z M237.5,2110.6h121.9v-141.1H237.5V2110.6z"/>
		</g>
		<g>
			<rect x="227.5" y="2262.5" class="st3" width="141.9" height="161.1"/>
			<path class="st2" d="M369.4,2433.6H227.5c-5.5,0-10-4.5-10-10v-161.1c0-5.5,4.5-10,10-10h141.9c5.5,0,10,4.5,10,10v161.1
				C379.4,2429.1,374.9,2433.6,369.4,2433.6z M237.5,2413.6h121.9v-141.1H237.5V2413.6z"/>
		</g>
		<g>
			<rect x="526" y="2565.5" class="st3" width="141.9" height="161.1"/>
			<path class="st2" d="M667.8,2736.6H526c-5.5,0-10-4.5-10-10v-161.1c0-5.5,4.5-10,10-10h141.9c5.5,0,10,4.5,10,10v161.1
				C677.8,2732.1,673.4,2736.6,667.8,2736.6z M536,2716.6h121.9v-141.1H536V2716.6z"/>
		</g>
		<g>
			<rect x="526" y="2262.5" class="st3" width="141.9" height="161.1"/>
			<path class="st2" d="M667.8,2433.6H526c-5.5,0-10-4.5-10-10v-161.1c0-5.5,4.5-10,10-10h141.9c5.5,0,10,4.5,10,10v161.1
				C677.8,2429.1,673.4,2433.6,667.8,2433.6z M536,2413.6h121.9v-141.1H536V2413.6z"/>
		</g>
		<g>
			<rect x="526" y="1959.5" class="st3" width="141.9" height="161.1"/>
			<path class="st2" d="M667.8,2130.6H526c-5.5,0-10-4.5-10-10v-161.1c0-5.5,4.5-10,10-10h141.9c5.5,0,10,4.5,10,10v161.1
				C677.8,2126.1,673.4,2130.6,667.8,2130.6z M536,2110.6h121.9v-141.1H536V2110.6z"/>
		</g>
		<g>
			<rect x="824.4" y="2565.5" class="st3" width="141.9" height="161.1"/>
			<path class="st2" d="M966.3,2736.6H824.4c-5.5,0-10-4.5-10-10v-161.1c0-5.5,4.5-10,10-10h141.9c5.5,0,10,4.5,10,10v161.1
				C976.3,2732.1,971.8,2736.6,966.3,2736.6z M834.4,2716.6h121.9v-141.1H834.4V2716.6z"/>
		</g>
		<g>
			<rect x="824.4" y="1959.5" class="st3" width="141.9" height="161.1"/>
			<path class="st2" d="M966.3,2130.6H824.4c-5.5,0-10-4.5-10-10v-161.1c0-5.5,4.5-10,10-10h141.9c5.5,0,10,4.5,10,10v161.1
				C976.3,2126.1,971.8,2130.6,966.3,2130.6z M834.4,2110.6h121.9v-141.1H834.4V2110.6z"/>
		</g>
		<g>
			<rect x="824.4" y="2262.5" class="st3" width="141.9" height="161.1"/>
			<path class="st2" d="M966.3,2433.6H824.4c-5.5,0-10-4.5-10-10v-161.1c0-5.5,4.5-10,10-10h141.9c5.5,0,10,4.5,10,10v161.1
				C976.3,2429.1,971.8,2433.6,966.3,2433.6z M834.4,2413.6h121.9v-141.1H834.4V2413.6z"/>
		</g>
		<g>
			<rect x="1122.9" y="1959.5" class="st3" width="141.9" height="161.1"/>
			<path class="st2" d="M1264.7,2130.6h-141.9c-5.5,0-10-4.5-10-10v-161.1c0-5.5,4.5-10,10-10h141.9c5.5,0,10,4.5,10,10v161.1
				C1274.7,2126.1,1270.3,2130.6,1264.7,2130.6z M1132.9,2110.6h121.9v-141.1h-121.9V2110.6z"/>
		</g>
		<g>
			<rect x="1122.9" y="2565.5" class="st3" width="141.9" height="161.1"/>
			<path class="st2" d="M1264.7,2736.6h-141.9c-5.5,0-10-4.5-10-10v-161.1c0-5.5,4.5-10,10-10h141.9c5.5,0,10,4.5,10,10v161.1
				C1274.7,2732.1,1270.3,2736.6,1264.7,2736.6z M1132.9,2716.6h121.9v-141.1h-121.9V2716.6z"/>
		</g>
		<g>
			<rect x="1122.9" y="2262.5" class="st3" width="141.9" height="161.1"/>
			<path class="st2" d="M1264.7,2433.6h-141.9c-5.5,0-10-4.5-10-10v-161.1c0-5.5,4.5-10,10-10h141.9c5.5,0,10,4.5,10,10v161.1
				C1274.7,2429.1,1270.3,2433.6,1264.7,2433.6z M1132.9,2413.6h121.9v-141.1h-121.9V2413.6z"/>
		</g>
		<g>
			<rect x="1421.3" y="2262.5" class="st3" width="141.9" height="161.1"/>
			<path class="st2" d="M1563.2,2433.6h-141.9c-5.5,0-10-4.5-10-10v-161.1c0-5.5,4.5-10,10-10h141.9c5.5,0,10,4.5,10,10v161.1
				C1573.2,2429.1,1568.7,2433.6,1563.2,2433.6z M1431.3,2413.6h121.9v-141.1h-121.9V2413.6z"/>
		</g>
		<g>
			<rect x="1421.3" y="2565.5" class="st3" width="141.9" height="161.1"/>
			<path class="st2" d="M1563.2,2736.6h-141.9c-5.5,0-10-4.5-10-10v-161.1c0-5.5,4.5-10,10-10h141.9c5.5,0,10,4.5,10,10v161.1
				C1573.2,2732.1,1568.7,2736.6,1563.2,2736.6z M1431.3,2716.6h121.9v-141.1h-121.9V2716.6z"/>
		</g>
		<g>
			<rect x="1421.3" y="1959.5" class="st3" width="141.9" height="161.1"/>
			<path class="st2" d="M1563.2,2130.6h-141.9c-5.5,0-10-4.5-10-10v-161.1c0-5.5,4.5-10,10-10h141.9c5.5,0,10,4.5,10,10v161.1
				C1573.2,2126.1,1568.7,2130.6,1563.2,2130.6z M1431.3,2110.6h121.9v-141.1h-121.9V2110.6z"/>
		</g>
		<g>
			<rect x="1719.8" y="2565.5" class="st3" width="141.9" height="161.1"/>
			<path class="st2" d="M1861.6,2736.6h-141.9c-5.5,0-10-4.5-10-10v-161.1c0-5.5,4.5-10,10-10h141.9c5.5,0,10,4.5,10,10v161.1
				C1871.6,2732.1,1867.2,2736.6,1861.6,2736.6z M1729.8,2716.6h121.9v-141.1h-121.9V2716.6z"/>
		</g>
		<g>
			<rect x="1719.8" y="2262.5" class="st3" width="141.9" height="161.1"/>
			<path class="st2" d="M1861.6,2433.6h-141.9c-5.5,0-10-4.5-10-10v-161.1c0-5.5,4.5-10,10-10h141.9c5.5,0,10,4.5,10,10v161.1
				C1871.6,2429.1,1867.2,2433.6,1861.6,2433.6z M1729.8,2413.6h121.9v-141.1h-121.9V2413.6z"/>
		</g>
		<g>
			<rect x="1719.8" y="1959.5" class="st3" width="141.9" height="161.1"/>
			<path class="st2" d="M1861.6,2130.6h-141.9c-5.5,0-10-4.5-10-10v-161.1c0-5.5,4.5-10,10-10h141.9c5.5,0,10,4.5,10,10v161.1
				C1871.6,2126.1,1867.2,2130.6,1861.6,2130.6z M1729.8,2110.6h121.9v-141.1h-121.9V2110.6z"/>
		</g>
		<g>
			<rect x="2018.2" y="1959.5" class="st3" width="141.9" height="161.1"/>
			<path class="st2" d="M2160.1,2130.6h-141.9c-5.5,0-10-4.5-10-10v-161.1c0-5.5,4.5-10,10-10h141.9c5.5,0,10,4.5,10,10v161.1
				C2170.1,2126.1,2165.6,2130.6,2160.1,2130.6z M2028.2,2110.6h121.9v-141.1h-121.9V2110.6z"/>
		</g>
		<g>
			<rect x="2018.2" y="2565.5" class="st3" width="141.9" height="161.1"/>
			<path class="st2" d="M2160.1,2736.6h-141.9c-5.5,0-10-4.5-10-10v-161.1c0-5.5,4.5-10,10-10h141.9c5.5,0,10,4.5,10,10v161.1
				C2170.1,2732.1,2165.6,2736.6,2160.1,2736.6z M2028.2,2716.6h121.9v-141.1h-121.9V2716.6z"/>
		</g>
		<g>
			<rect x="2018.2" y="2262.5" class="st3" width="141.9" height="161.1"/>
			<path class="st2" d="M2160.1,2433.6h-141.9c-5.5,0-10-4.5-10-10v-161.1c0-5.5,4.5-10,10-10h141.9c5.5,0,10,4.5,10,10v161.1
				C2170.1,2429.1,2165.6,2433.6,2160.1,2433.6z M2028.2,2413.6h121.9v-141.1h-121.9V2413.6z"/>
		</g>
		<g>
			<rect x="2316.7" y="2565.5" class="st3" width="141.9" height="161.1"/>
			<path class="st2" d="M2458.5,2736.6h-141.9c-5.5,0-10-4.5-10-10v-161.1c0-5.5,4.5-10,10-10h141.9c5.5,0,10,4.5,10,10v161.1
				C2468.5,2732.1,2464.1,2736.6,2458.5,2736.6z M2326.7,2716.6h121.9v-141.1h-121.9V2716.6z"/>
		</g>
		<g>
			<rect x="2316.7" y="2262.5" class="st3" width="141.9" height="161.1"/>
			<path class="st2" d="M2458.5,2433.6h-141.9c-5.5,0-10-4.5-10-10v-161.1c0-5.5,4.5-10,10-10h141.9c5.5,0,10,4.5,10,10v161.1
				C2468.5,2429.1,2464.1,2433.6,2458.5,2433.6z M2326.7,2413.6h121.9v-141.1h-121.9V2413.6z"/>
		</g>
		<g>
			<rect x="2316.7" y="1959.5" class="st3" width="141.9" height="161.1"/>
			<path class="st2" d="M2458.5,2130.6h-141.9c-5.5,0-10-4.5-10-10v-161.1c0-5.5,4.5-10,10-10h141.9c5.5,0,10,4.5,10,10v161.1
				C2468.5,2126.1,2464.1,2130.6,2458.5,2130.6z M2326.7,2110.6h121.9v-141.1h-121.9V2110.6z"/>
		</g>
		<g>
			<rect x="2615.1" y="2262.5" class="st3" width="141.9" height="161.1"/>
			<path class="st2" d="M2757,2433.6h-141.9c-5.5,0-10-4.5-10-10v-161.1c0-5.5,4.5-10,10-10H2757c5.5,0,10,4.5,10,10v161.1
				C2767,2429.1,2762.5,2433.6,2757,2433.6z M2625.1,2413.6H2747v-141.1h-121.9V2413.6z"/>
		</g>
		<g>
			<rect x="2615.1" y="1959.5" class="st3" width="141.9" height="161.1"/>
			<path class="st2" d="M2757,2130.6h-141.9c-5.5,0-10-4.5-10-10v-161.1c0-5.5,4.5-10,10-10H2757c5.5,0,10,4.5,10,10v161.1
				C2767,2126.1,2762.5,2130.6,2757,2130.6z M2625.1,2110.6H2747v-141.1h-121.9V2110.6z"/>
		</g>
		<g>
			<rect x="2615.1" y="2565.5" class="st3" width="141.9" height="161.1"/>
			<path class="st2" d="M2757,2736.6h-141.9c-5.5,0-10-4.5-10-10v-161.1c0-5.5,4.5-10,10-10H2757c5.5,0,10,4.5,10,10v161.1
				C2767,2732.1,2762.5,2736.6,2757,2736.6z M2625.1,2716.6H2747v-141.1h-121.9V2716.6z"/>
		</g>
		<g>
			<rect x="1264.7" y="2726.6" class="st4" width="156.6" height="141.9"/>
			<path class="st2" d="M1421.3,2878.5h-156.6c-5.5,0-10-4.5-10-10v-141.9c0-5.5,4.5-10,10-10h156.6c5.5,0,10,4.5,10,10v141.9
				C1431.3,2874,1426.8,2878.5,1421.3,2878.5z M1274.7,2858.5h136.6v-121.9h-136.6V2858.5z"/>
		</g>
		<g>
			<rect x="966.3" y="2726.6" class="st4" width="156.6" height="141.9"/>
			<path class="st2" d="M1122.9,2878.5H966.3c-5.5,0-10-4.5-10-10v-141.9c0-5.5,4.5-10,10-10h156.6c5.5,0,10,4.5,10,10v141.9
				C1132.9,2874,1128.4,2878.5,1122.9,2878.5z M976.3,2858.5h136.6v-121.9H976.3V2858.5z"/>
		</g>
		<g>
			<rect x="70.9" y="2726.6" class="st4" width="156.6" height="141.9"/>
			<path class="st2" d="M227.5,2878.5H70.9c-5.5,0-10-4.5-10-10v-141.9c0-5.5,4.5-10,10-10h156.6c5.5,0,10,4.5,10,10v141.9
				C237.5,2874,233,2878.5,227.5,2878.5z M80.9,2858.5h136.6v-121.9H80.9V2858.5z"/>
		</g>
		<g>
			<rect x="1861.6" y="2726.6" class="st4" width="156.6" height="141.9"/>
			<path class="st2" d="M2018.2,2878.5h-156.6c-5.5,0-10-4.5-10-10v-141.9c0-5.5,4.5-10,10-10h156.6c5.5,0,10,4.5,10,10v141.9
				C2028.2,2874,2023.7,2878.5,2018.2,2878.5z M1871.6,2858.5h136.6v-121.9h-136.6V2858.5z"/>
		</g>
		<g>
			<rect x="369.4" y="2726.6" class="st4" width="156.6" height="141.9"/>
			<path class="st2" d="M526,2878.5H369.4c-5.5,0-10-4.5-10-10v-141.9c0-5.5,4.5-10,10-10H526c5.5,0,10,4.5,10,10v141.9
				C536,2874,531.5,2878.5,526,2878.5z M379.4,2858.5H516v-121.9H379.4V2858.5z"/>
		</g>
		<g>
			<rect x="2458.5" y="2726.6" class="st1" width="156.6" height="141.9"/>
			<path class="st2" d="M2615.1,2878.5h-156.6c-5.5,0-10-4.5-10-10v-141.9c0-5.5,4.5-10,10-10h156.6c5.5,0,10,4.5,10,10v141.9
				C2625.1,2874,2620.6,2878.5,2615.1,2878.5z M2468.5,2858.5h136.6v-121.9h-136.6V2858.5z"/>
		</g>
		<g>
			<rect x="2160.1" y="2726.6" class="st4" width="156.6" height="141.9"/>
			<path class="st2" d="M2316.7,2878.5h-156.6c-5.5,0-10-4.5-10-10v-141.9c0-5.5,4.5-10,10-10h156.6c5.5,0,10,4.5,10,10v141.9
				C2326.7,2874,2322.2,2878.5,2316.7,2878.5z M2170.1,2858.5h136.6v-121.9h-136.6V2858.5z"/>
		</g>
		<g>
			<rect x="1563.2" y="2726.6" class="st4" width="156.6" height="141.9"/>
			<path class="st2" d="M1719.8,2878.5h-156.6c-5.5,0-10-4.5-10-10v-141.9c0-5.5,4.5-10,10-10h156.6c5.5,0,10,4.5,10,10v141.9
				C1729.8,2874,1725.3,2878.5,1719.8,2878.5z M1573.2,2858.5h136.6v-121.9h-136.6V2858.5z"/>
		</g>
		<g>
			<rect x="2757" y="2726.6" class="st4" width="111.5" height="141.9"/>
			<path class="st2" d="M2868.5,2878.5H2757c-5.5,0-10-4.5-10-10v-141.9c0-5.5,4.5-10,10-10h111.5c5.5,0,10,4.5,10,10v141.9
				C2878.5,2874,2874,2878.5,2868.5,2878.5z M2767,2858.5h91.5v-121.9H2767V2858.5z"/>
		</g>
		<g>
			<rect x="667.8" y="2726.6" class="st4" width="156.6" height="141.9"/>
			<path class="st2" d="M824.4,2878.5H667.8c-5.5,0-10-4.5-10-10v-141.9c0-5.5,4.5-10,10-10h156.6c5.5,0,10,4.5,10,10v141.9
				C834.4,2874,829.9,2878.5,824.4,2878.5z M677.8,2858.5h136.6v-121.9H677.8V2858.5z"/>
		</g>
		<g>
			<rect x="-68.5" y="2726.6" class="st1" width="139.4" height="141.9"/>
			<path class="st2" d="M70.9,2878.5H-68.5c-5.5,0-10-4.5-10-10v-141.9c0-5.5,4.5-10,10-10H70.9c5.5,0,10,4.5,10,10v141.9
				C80.9,2874,76.5,2878.5,70.9,2878.5z M-58.5,2858.5H60.9v-121.9H-58.5V2858.5z"/>
		</g>
		<g>
			<rect x="227.5" y="2726.6" class="st1" width="141.9" height="141.9"/>
			<path class="st2" d="M369.4,2878.5H227.5c-5.5,0-10-4.5-10-10v-141.9c0-5.5,4.5-10,10-10h141.9c5.5,0,10,4.5,10,10v141.9
				C379.4,2874,374.9,2878.5,369.4,2878.5z M237.5,2858.5h121.9v-121.9H237.5V2858.5z"/>
		</g>
		<g>
			<rect x="526" y="2726.6" class="st1" width="141.9" height="141.9"/>
			<path class="st2" d="M667.8,2878.5H526c-5.5,0-10-4.5-10-10v-141.9c0-5.5,4.5-10,10-10h141.9c5.5,0,10,4.5,10,10v141.9
				C677.8,2874,673.4,2878.5,667.8,2878.5z M536,2858.5h121.9v-121.9H536V2858.5z"/>
		</g>
		<g>
			<rect x="824.4" y="2726.6" class="st1" width="141.9" height="141.9"/>
			<path class="st2" d="M966.3,2878.5H824.4c-5.5,0-10-4.5-10-10v-141.9c0-5.5,4.5-10,10-10h141.9c5.5,0,10,4.5,10,10v141.9
				C976.3,2874,971.8,2878.5,966.3,2878.5z M834.4,2858.5h121.9v-121.9H834.4V2858.5z"/>
		</g>
		<g>
			<rect x="1122.9" y="2726.6" class="st1" width="141.9" height="141.9"/>
			<path class="st2" d="M1264.7,2878.5h-141.9c-5.5,0-10-4.5-10-10v-141.9c0-5.5,4.5-10,10-10h141.9c5.5,0,10,4.5,10,10v141.9
				C1274.7,2874,1270.3,2878.5,1264.7,2878.5z M1132.9,2858.5h121.9v-121.9h-121.9V2858.5z"/>
		</g>
		<g>
			<rect x="1421.3" y="2726.6" class="st1" width="141.9" height="141.9"/>
			<path class="st2" d="M1563.2,2878.5h-141.9c-5.5,0-10-4.5-10-10v-141.9c0-5.5,4.5-10,10-10h141.9c5.5,0,10,4.5,10,10v141.9
				C1573.2,2874,1568.7,2878.5,1563.2,2878.5z M1431.3,2858.5h121.9v-121.9h-121.9V2858.5z"/>
		</g>
		<g>
			<rect x="1719.8" y="2726.6" class="st1" width="141.9" height="141.9"/>
			<path class="st2" d="M1861.6,2878.5h-141.9c-5.5,0-10-4.5-10-10v-141.9c0-5.5,4.5-10,10-10h141.9c5.5,0,10,4.5,10,10v141.9
				C1871.6,2874,1867.2,2878.5,1861.6,2878.5z M1729.8,2858.5h121.9v-121.9h-121.9V2858.5z"/>
		</g>
		<g>
			<rect x="2018.2" y="2726.6" class="st1" width="141.9" height="141.9"/>
			<path class="st2" d="M2160.1,2878.5h-141.9c-5.5,0-10-4.5-10-10v-141.9c0-5.5,4.5-10,10-10h141.9c5.5,0,10,4.5,10,10v141.9
				C2170.1,2874,2165.6,2878.5,2160.1,2878.5z M2028.2,2858.5h121.9v-121.9h-121.9V2858.5z"/>
		</g>
		<g>
			<rect x="2316.7" y="2726.6" class="st1" width="141.9" height="141.9"/>
			<path class="st2" d="M2458.5,2878.5h-141.9c-5.5,0-10-4.5-10-10v-141.9c0-5.5,4.5-10,10-10h141.9c5.5,0,10,4.5,10,10v141.9
				C2468.5,2874,2464.1,2878.5,2458.5,2878.5z M2326.7,2858.5h121.9v-121.9h-121.9V2858.5z"/>
		</g>
		<g>
			<rect x="2615.1" y="2726.6" class="st1" width="141.9" height="141.9"/>
			<path class="st2" d="M2757,2878.5h-141.9c-5.5,0-10-4.5-10-10v-141.9c0-5.5,4.5-10,10-10H2757c5.5,0,10,4.5,10,10v141.9
				C2767,2874,2762.5,2878.5,2757,2878.5z M2625.1,2858.5H2747v-121.9h-121.9V2858.5z"/>
		</g>
		<g>
			<rect x="2458.5" y="2423.6" class="st4" width="156.6" height="141.9"/>
			<path class="st2" d="M2615.1,2575.5h-156.6c-5.5,0-10-4.5-10-10v-141.9c0-5.5,4.5-10,10-10h156.6c5.5,0,10,4.5,10,10v141.9
				C2625.1,2571,2620.6,2575.5,2615.1,2575.5z M2468.5,2555.5h136.6v-121.9h-136.6V2555.5z"/>
		</g>
		<g>
			<rect x="2757" y="2423.6" class="st4" width="111.5" height="141.9"/>
			<path class="st2" d="M2868.5,2575.5H2757c-5.5,0-10-4.5-10-10v-141.9c0-5.5,4.5-10,10-10h111.5c5.5,0,10,4.5,10,10v141.9
				C2878.5,2571,2874,2575.5,2868.5,2575.5z M2767,2555.5h91.5v-121.9H2767V2555.5z"/>
		</g>
		<g>
			<rect x="1563.2" y="2423.6" class="st4" width="156.6" height="141.9"/>
			<path class="st2" d="M1719.8,2575.5h-156.6c-5.5,0-10-4.5-10-10v-141.9c0-5.5,4.5-10,10-10h156.6c5.5,0,10,4.5,10,10v141.9
				C1729.8,2571,1725.3,2575.5,1719.8,2575.5z M1573.2,2555.5h136.6v-121.9h-136.6V2555.5z"/>
		</g>
		<g>
			<rect x="2160.1" y="2423.6" class="st4" width="156.6" height="141.9"/>
			<path class="st2" d="M2316.7,2575.5h-156.6c-5.5,0-10-4.5-10-10v-141.9c0-5.5,4.5-10,10-10h156.6c5.5,0,10,4.5,10,10v141.9
				C2326.7,2571,2322.2,2575.5,2316.7,2575.5z M2170.1,2555.5h136.6v-121.9h-136.6V2555.5z"/>
		</g>
		<g>
			<rect x="667.8" y="2423.6" class="st4" width="156.6" height="141.9"/>
			<path class="st2" d="M824.4,2575.5H667.8c-5.5,0-10-4.5-10-10v-141.9c0-5.5,4.5-10,10-10h156.6c5.5,0,10,4.5,10,10v141.9
				C834.4,2571,829.9,2575.5,824.4,2575.5z M677.8,2555.5h136.6v-121.9H677.8V2555.5z"/>
		</g>
		<g>
			<rect x="369.4" y="2423.6" class="st4" width="156.6" height="141.9"/>
			<path class="st2" d="M526,2575.5H369.4c-5.5,0-10-4.5-10-10v-141.9c0-5.5,4.5-10,10-10H526c5.5,0,10,4.5,10,10v141.9
				C536,2571,531.5,2575.5,526,2575.5z M379.4,2555.5H516v-121.9H379.4V2555.5z"/>
		</g>
		<g>
			<rect x="1861.6" y="2423.6" class="st4" width="156.6" height="141.9"/>
			<path class="st2" d="M2018.2,2575.5h-156.6c-5.5,0-10-4.5-10-10v-141.9c0-5.5,4.5-10,10-10h156.6c5.5,0,10,4.5,10,10v141.9
				C2028.2,2571,2023.7,2575.5,2018.2,2575.5z M1871.6,2555.5h136.6v-121.9h-136.6V2555.5z"/>
		</g>
		<g>
			<rect x="1264.7" y="2423.6" class="st4" width="156.6" height="141.9"/>
			<path class="st2" d="M1421.3,2575.5h-156.6c-5.5,0-10-4.5-10-10v-141.9c0-5.5,4.5-10,10-10h156.6c5.5,0,10,4.5,10,10v141.9
				C1431.3,2571,1426.8,2575.5,1421.3,2575.5z M1274.7,2555.5h136.6v-121.9h-136.6V2555.5z"/>
		</g>
		<g>
			<rect x="966.3" y="2423.6" class="st4" width="156.6" height="141.9"/>
			<path class="st2" d="M1122.9,2575.5H966.3c-5.5,0-10-4.5-10-10v-141.9c0-5.5,4.5-10,10-10h156.6c5.5,0,10,4.5,10,10v141.9
				C1132.9,2571,1128.4,2575.5,1122.9,2575.5z M976.3,2555.5h136.6v-121.9H976.3V2555.5z"/>
		</g>
		<g>
			<rect x="70.9" y="2423.6" class="st4" width="156.6" height="141.9"/>
			<path class="st2" d="M227.5,2575.5H70.9c-5.5,0-10-4.5-10-10v-141.9c0-5.5,4.5-10,10-10h156.6c5.5,0,10,4.5,10,10v141.9
				C237.5,2571,233,2575.5,227.5,2575.5z M80.9,2555.5h136.6v-121.9H80.9V2555.5z"/>
		</g>
		<g>
			<rect x="-68.5" y="2423.6" class="st1" width="139.4" height="141.9"/>
			<path class="st2" d="M70.9,2575.5H-68.5c-5.5,0-10-4.5-10-10v-141.9c0-5.5,4.5-10,10-10H70.9c5.5,0,10,4.5,10,10v141.9
				C80.9,2571,76.5,2575.5,70.9,2575.5z M-58.5,2555.5H60.9v-121.9H-58.5V2555.5z"/>
		</g>
		<g>
			<rect x="227.5" y="2423.6" class="st1" width="141.9" height="141.9"/>
			<path class="st2" d="M369.4,2575.5H227.5c-5.5,0-10-4.5-10-10v-141.9c0-5.5,4.5-10,10-10h141.9c5.5,0,10,4.5,10,10v141.9
				C379.4,2571,374.9,2575.5,369.4,2575.5z M237.5,2555.5h121.9v-121.9H237.5V2555.5z"/>
		</g>
		<g>
			<rect x="526" y="2423.6" class="st1" width="141.9" height="141.9"/>
			<path class="st2" d="M667.8,2575.5H526c-5.5,0-10-4.5-10-10v-141.9c0-5.5,4.5-10,10-10h141.9c5.5,0,10,4.5,10,10v141.9
				C677.8,2571,673.4,2575.5,667.8,2575.5z M536,2555.5h121.9v-121.9H536V2555.5z"/>
		</g>
		<g>
			<rect x="824.4" y="2423.6" class="st1" width="141.9" height="141.9"/>
			<path class="st2" d="M966.3,2575.5H824.4c-5.5,0-10-4.5-10-10v-141.9c0-5.5,4.5-10,10-10h141.9c5.5,0,10,4.5,10,10v141.9
				C976.3,2571,971.8,2575.5,966.3,2575.5z M834.4,2555.5h121.9v-121.9H834.4V2555.5z"/>
		</g>
		<g>
			<rect x="1122.9" y="2423.6" class="st1" width="141.9" height="141.9"/>
			<path class="st2" d="M1264.7,2575.5h-141.9c-5.5,0-10-4.5-10-10v-141.9c0-5.5,4.5-10,10-10h141.9c5.5,0,10,4.5,10,10v141.9
				C1274.7,2571,1270.3,2575.5,1264.7,2575.5z M1132.9,2555.5h121.9v-121.9h-121.9V2555.5z"/>
		</g>
		<g>
			<rect x="1421.3" y="2423.6" class="st1" width="141.9" height="141.9"/>
			<path class="st2" d="M1563.2,2575.5h-141.9c-5.5,0-10-4.5-10-10v-141.9c0-5.5,4.5-10,10-10h141.9c5.5,0,10,4.5,10,10v141.9
				C1573.2,2571,1568.7,2575.5,1563.2,2575.5z M1431.3,2555.5h121.9v-121.9h-121.9V2555.5z"/>
		</g>
		<g>
			<rect x="1719.8" y="2423.6" class="st1" width="141.9" height="141.9"/>
			<path class="st2" d="M1861.6,2575.5h-141.9c-5.5,0-10-4.5-10-10v-141.9c0-5.5,4.5-10,10-10h141.9c5.5,0,10,4.5,10,10v141.9
				C1871.6,2571,1867.2,2575.5,1861.6,2575.5z M1729.8,2555.5h121.9v-121.9h-121.9V2555.5z"/>
		</g>
		<g>
			<rect x="2018.2" y="2423.6" class="st1" width="141.9" height="141.9"/>
			<path class="st2" d="M2160.1,2575.5h-141.9c-5.5,0-10-4.5-10-10v-141.9c0-5.5,4.5-10,10-10h141.9c5.5,0,10,4.5,10,10v141.9
				C2170.1,2571,2165.6,2575.5,2160.1,2575.5z M2028.2,2555.5h121.9v-121.9h-121.9V2555.5z"/>
		</g>
		<g>
			<rect x="2316.7" y="2423.6" class="st1" width="141.9" height="141.9"/>
			<path class="st2" d="M2458.5,2575.5h-141.9c-5.5,0-10-4.5-10-10v-141.9c0-5.5,4.5-10,10-10h141.9c5.5,0,10,4.5,10,10v141.9
				C2468.5,2571,2464.1,2575.5,2458.5,2575.5z M2326.7,2555.5h121.9v-121.9h-121.9V2555.5z"/>
		</g>
		<g>
			<rect x="2615.1" y="2423.6" class="st1" width="141.9" height="141.9"/>
			<path class="st2" d="M2757,2575.5h-141.9c-5.5,0-10-4.5-10-10v-141.9c0-5.5,4.5-10,10-10H2757c5.5,0,10,4.5,10,10v141.9
				C2767,2571,2762.5,2575.5,2757,2575.5z M2625.1,2555.5H2747v-121.9h-121.9V2555.5z"/>
		</g>
		<g>
			<rect x="369.4" y="2120.6" class="st4" width="156.6" height="141.9"/>
			<path class="st2" d="M526,2272.5H369.4c-5.5,0-10-4.5-10-10v-141.9c0-5.5,4.5-10,10-10H526c5.5,0,10,4.5,10,10v141.9
				C536,2268,531.5,2272.5,526,2272.5z M379.4,2252.5H516v-121.9H379.4V2252.5z"/>
		</g>
		<g>
			<rect x="1563.2" y="2120.6" class="st4" width="156.6" height="141.9"/>
			<path class="st2" d="M1719.8,2272.5h-156.6c-5.5,0-10-4.5-10-10v-141.9c0-5.5,4.5-10,10-10h156.6c5.5,0,10,4.5,10,10v141.9
				C1729.8,2268,1725.3,2272.5,1719.8,2272.5z M1573.2,2252.5h136.6v-121.9h-136.6V2252.5z"/>
		</g>
		<g>
			<rect x="1861.6" y="2120.6" class="st4" width="156.6" height="141.9"/>
			<path class="st2" d="M2018.2,2272.5h-156.6c-5.5,0-10-4.5-10-10v-141.9c0-5.5,4.5-10,10-10h156.6c5.5,0,10,4.5,10,10v141.9
				C2028.2,2268,2023.7,2272.5,2018.2,2272.5z M1871.6,2252.5h136.6v-121.9h-136.6V2252.5z"/>
		</g>
		<g>
			<rect x="2160.1" y="2120.6" class="st4" width="156.6" height="141.9"/>
			<path class="st2" d="M2316.7,2272.5h-156.6c-5.5,0-10-4.5-10-10v-141.9c0-5.5,4.5-10,10-10h156.6c5.5,0,10,4.5,10,10v141.9
				C2326.7,2268,2322.2,2272.5,2316.7,2272.5z M2170.1,2252.5h136.6v-121.9h-136.6V2252.5z"/>
		</g>
		<g>
			<rect x="966.3" y="2120.6" class="st4" width="156.6" height="141.9"/>
			<path class="st2" d="M1122.9,2272.5H966.3c-5.5,0-10-4.5-10-10v-141.9c0-5.5,4.5-10,10-10h156.6c5.5,0,10,4.5,10,10v141.9
				C1132.9,2268,1128.4,2272.5,1122.9,2272.5z M976.3,2252.5h136.6v-121.9H976.3V2252.5z"/>
		</g>
		<g>
			<rect x="667.8" y="2120.6" class="st4" width="156.6" height="141.9"/>
			<path class="st2" d="M824.4,2272.5H667.8c-5.5,0-10-4.5-10-10v-141.9c0-5.5,4.5-10,10-10h156.6c5.5,0,10,4.5,10,10v141.9
				C834.4,2268,829.9,2272.5,824.4,2272.5z M677.8,2252.5h136.6v-121.9H677.8V2252.5z"/>
		</g>
		<g>
			<rect x="70.9" y="2120.6" class="st4" width="156.6" height="141.9"/>
			<path class="st2" d="M227.5,2272.5H70.9c-5.5,0-10-4.5-10-10v-141.9c0-5.5,4.5-10,10-10h156.6c5.5,0,10,4.5,10,10v141.9
				C237.5,2268,233,2272.5,227.5,2272.5z M80.9,2252.5h136.6v-121.9H80.9V2252.5z"/>
		</g>
		<g>
			<rect x="1264.7" y="2120.6" class="st4" width="156.6" height="141.9"/>
			<path class="st2" d="M1421.3,2272.5h-156.6c-5.5,0-10-4.5-10-10v-141.9c0-5.5,4.5-10,10-10h156.6c5.5,0,10,4.5,10,10v141.9
				C1431.3,2268,1426.8,2272.5,1421.3,2272.5z M1274.7,2252.5h136.6v-121.9h-136.6V2252.5z"/>
		</g>
		<g>
			<rect x="2458.5" y="2120.6" class="st4" width="156.6" height="141.9"/>
			<path class="st2" d="M2615.1,2272.5h-156.6c-5.5,0-10-4.5-10-10v-141.9c0-5.5,4.5-10,10-10h156.6c5.5,0,10,4.5,10,10v141.9
				C2625.1,2268,2620.6,2272.5,2615.1,2272.5z M2468.5,2252.5h136.6v-121.9h-136.6V2252.5z"/>
		</g>
		<g>
			<rect x="2757" y="2120.6" class="st4" width="111.5" height="141.9"/>
			<path class="st2" d="M2868.5,2272.5H2757c-5.5,0-10-4.5-10-10v-141.9c0-5.5,4.5-10,10-10h111.5c5.5,0,10,4.5,10,10v141.9
				C2878.5,2268,2874,2272.5,2868.5,2272.5z M2767,2252.5h91.5v-121.9H2767V2252.5z"/>
		</g>
		<g>
			<rect x="-68.5" y="2120.6" class="st1" width="139.4" height="141.9"/>
			<path class="st2" d="M70.9,2272.5H-68.5c-5.5,0-10-4.5-10-10v-141.9c0-5.5,4.5-10,10-10H70.9c5.5,0,10,4.5,10,10v141.9
				C80.9,2268,76.5,2272.5,70.9,2272.5z M-58.5,2252.5H60.9v-121.9H-58.5V2252.5z"/>
		</g>
		<g>
			<rect x="227.5" y="2120.6" class="st1" width="141.9" height="141.9"/>
			<path class="st2" d="M369.4,2272.5H227.5c-5.5,0-10-4.5-10-10v-141.9c0-5.5,4.5-10,10-10h141.9c5.5,0,10,4.5,10,10v141.9
				C379.4,2268,374.9,2272.5,369.4,2272.5z M237.5,2252.5h121.9v-121.9H237.5V2252.5z"/>
		</g>
		<g>
			<rect x="526" y="2120.6" class="st1" width="141.9" height="141.9"/>
			<path class="st2" d="M667.8,2272.5H526c-5.5,0-10-4.5-10-10v-141.9c0-5.5,4.5-10,10-10h141.9c5.5,0,10,4.5,10,10v141.9
				C677.8,2268,673.4,2272.5,667.8,2272.5z M536,2252.5h121.9v-121.9H536V2252.5z"/>
		</g>
		<g>
			<rect x="824.4" y="2120.6" class="st1" width="141.9" height="141.9"/>
			<path class="st2" d="M966.3,2272.5H824.4c-5.5,0-10-4.5-10-10v-141.9c0-5.5,4.5-10,10-10h141.9c5.5,0,10,4.5,10,10v141.9
				C976.3,2268,971.8,2272.5,966.3,2272.5z M834.4,2252.5h121.9v-121.9H834.4V2252.5z"/>
		</g>
		<g>
			<rect x="1122.9" y="2120.6" class="st1" width="141.9" height="141.9"/>
			<path class="st2" d="M1264.7,2272.5h-141.9c-5.5,0-10-4.5-10-10v-141.9c0-5.5,4.5-10,10-10h141.9c5.5,0,10,4.5,10,10v141.9
				C1274.7,2268,1270.3,2272.5,1264.7,2272.5z M1132.9,2252.5h121.9v-121.9h-121.9V2252.5z"/>
		</g>
		<g>
			<rect x="1421.3" y="2120.6" class="st1" width="141.9" height="141.9"/>
			<path class="st2" d="M1563.2,2272.5h-141.9c-5.5,0-10-4.5-10-10v-141.9c0-5.5,4.5-10,10-10h141.9c5.5,0,10,4.5,10,10v141.9
				C1573.2,2268,1568.7,2272.5,1563.2,2272.5z M1431.3,2252.5h121.9v-121.9h-121.9V2252.5z"/>
		</g>
		<g>
			<rect x="1719.8" y="2120.6" class="st1" width="141.9" height="141.9"/>
			<path class="st2" d="M1861.6,2272.5h-141.9c-5.5,0-10-4.5-10-10v-141.9c0-5.5,4.5-10,10-10h141.9c5.5,0,10,4.5,10,10v141.9
				C1871.6,2268,1867.2,2272.5,1861.6,2272.5z M1729.8,2252.5h121.9v-121.9h-121.9V2252.5z"/>
		</g>
		<g>
			<rect x="2018.2" y="2120.6" class="st1" width="141.9" height="141.9"/>
			<path class="st2" d="M2160.1,2272.5h-141.9c-5.5,0-10-4.5-10-10v-141.9c0-5.5,4.5-10,10-10h141.9c5.5,0,10,4.5,10,10v141.9
				C2170.1,2268,2165.6,2272.5,2160.1,2272.5z M2028.2,2252.5h121.9v-121.9h-121.9V2252.5z"/>
		</g>
		<g>
			<rect x="2316.7" y="2120.6" class="st1" width="141.9" height="141.9"/>
			<path class="st2" d="M2458.5,2272.5h-141.9c-5.5,0-10-4.5-10-10v-141.9c0-5.5,4.5-10,10-10h141.9c5.5,0,10,4.5,10,10v141.9
				C2468.5,2268,2464.1,2272.5,2458.5,2272.5z M2326.7,2252.5h121.9v-121.9h-121.9V2252.5z"/>
		</g>
		<g>
			<rect x="2615.1" y="2120.6" class="st1" width="141.9" height="141.9"/>
			<path class="st2" d="M2757,2272.5h-141.9c-5.5,0-10-4.5-10-10v-141.9c0-5.5,4.5-10,10-10H2757c5.5,0,10,4.5,10,10v141.9
				C2767,2268,2762.5,2272.5,2757,2272.5z M2625.1,2252.5H2747v-121.9h-121.9V2252.5z"/>
		</g>
		<g>
			<rect x="1264.7" y="1817.6" class="st1" width="156.6" height="141.9"/>
			<path class="st2" d="M1421.3,1969.5h-156.6c-5.5,0-10-4.5-10-10v-141.9c0-5.5,4.5-10,10-10h156.6c5.5,0,10,4.5,10,10v141.9
				C1431.3,1965,1426.8,1969.5,1421.3,1969.5z M1274.7,1949.5h136.6v-121.9h-136.6V1949.5z"/>
		</g>
		<g>
			<rect x="1563.2" y="1817.6" class="st1" width="156.6" height="141.9"/>
			<path class="st2" d="M1719.8,1969.5h-156.6c-5.5,0-10-4.5-10-10v-141.9c0-5.5,4.5-10,10-10h156.6c5.5,0,10,4.5,10,10v141.9
				C1729.8,1965,1725.3,1969.5,1719.8,1969.5z M1573.2,1949.5h136.6v-121.9h-136.6V1949.5z"/>
		</g>
		<g>
			<rect x="369.4" y="1817.6" class="st4" width="156.6" height="141.9"/>
			<path class="st2" d="M526,1969.5H369.4c-5.5,0-10-4.5-10-10v-141.9c0-5.5,4.5-10,10-10H526c5.5,0,10,4.5,10,10v141.9
				C536,1965,531.5,1969.5,526,1969.5z M379.4,1949.5H516v-121.9H379.4V1949.5z"/>
		</g>
		<g>
			<rect x="667.8" y="1817.6" class="st4" width="156.6" height="141.9"/>
			<path class="st2" d="M824.4,1969.5H667.8c-5.5,0-10-4.5-10-10v-141.9c0-5.5,4.5-10,10-10h156.6c5.5,0,10,4.5,10,10v141.9
				C834.4,1965,829.9,1969.5,824.4,1969.5z M677.8,1949.5h136.6v-121.9H677.8V1949.5z"/>
		</g>
		<g>
			<rect x="70.9" y="1817.6" class="st4" width="156.6" height="141.9"/>
			<path class="st2" d="M227.5,1969.5H70.9c-5.5,0-10-4.5-10-10v-141.9c0-5.5,4.5-10,10-10h156.6c5.5,0,10,4.5,10,10v141.9
				C237.5,1965,233,1969.5,227.5,1969.5z M80.9,1949.5h136.6v-121.9H80.9V1949.5z"/>
		</g>
		<g>
			<rect x="966.3" y="1817.6" class="st1" width="156.6" height="141.9"/>
			<path class="st2" d="M1122.9,1969.5H966.3c-5.5,0-10-4.5-10-10v-141.9c0-5.5,4.5-10,10-10h156.6c5.5,0,10,4.5,10,10v141.9
				C1132.9,1965,1128.4,1969.5,1122.9,1969.5z M976.3,1949.5h136.6v-121.9H976.3V1949.5z"/>
		</g>
		<g>
			<rect x="2458.5" y="1817.6" class="st4" width="156.6" height="141.9"/>
			<path class="st2" d="M2615.1,1969.5h-156.6c-5.5,0-10-4.5-10-10v-141.9c0-5.5,4.5-10,10-10h156.6c5.5,0,10,4.5,10,10v141.9
				C2625.1,1965,2620.6,1969.5,2615.1,1969.5z M2468.5,1949.5h136.6v-121.9h-136.6V1949.5z"/>
		</g>
		<g>
			<rect x="1861.6" y="1817.6" class="st4" width="156.6" height="141.9"/>
			<path class="st2" d="M2018.2,1969.5h-156.6c-5.5,0-10-4.5-10-10v-141.9c0-5.5,4.5-10,10-10h156.6c5.5,0,10,4.5,10,10v141.9
				C2028.2,1965,2023.7,1969.5,2018.2,1969.5z M1871.6,1949.5h136.6v-121.9h-136.6V1949.5z"/>
		</g>
		<g>
			<rect x="2160.1" y="1817.6" class="st4" width="156.6" height="141.9"/>
			<path class="st2" d="M2316.7,1969.5h-156.6c-5.5,0-10-4.5-10-10v-141.9c0-5.5,4.5-10,10-10h156.6c5.5,0,10,4.5,10,10v141.9
				C2326.7,1965,2322.2,1969.5,2316.7,1969.5z M2170.1,1949.5h136.6v-121.9h-136.6V1949.5z"/>
		</g>
		<g>
			<rect x="2757" y="1817.6" class="st4" width="111.5" height="141.9"/>
			<path class="st2" d="M2868.5,1969.5H2757c-5.5,0-10-4.5-10-10v-141.9c0-5.5,4.5-10,10-10h111.5c5.5,0,10,4.5,10,10v141.9
				C2878.5,1965,2874,1969.5,2868.5,1969.5z M2767,1949.5h91.5v-121.9H2767V1949.5z"/>
		</g>
		<g>
			<rect x="-68.5" y="1817.6" class="st1" width="139.4" height="141.9"/>
			<path class="st2" d="M70.9,1969.5H-68.5c-5.5,0-10-4.5-10-10v-141.9c0-5.5,4.5-10,10-10H70.9c5.5,0,10,4.5,10,10v141.9
				C80.9,1965,76.5,1969.5,70.9,1969.5z M-58.5,1949.5H60.9v-121.9H-58.5V1949.5z"/>
		</g>
		<g>
			<rect x="227.5" y="1817.6" class="st1" width="141.9" height="141.9"/>
			<path class="st2" d="M369.4,1969.5H227.5c-5.5,0-10-4.5-10-10v-141.9c0-5.5,4.5-10,10-10h141.9c5.5,0,10,4.5,10,10v141.9
				C379.4,1965,374.9,1969.5,369.4,1969.5z M237.5,1949.5h121.9v-121.9H237.5V1949.5z"/>
		</g>
		<g>
			<rect x="526" y="1817.6" class="st1" width="141.9" height="141.9"/>
			<path class="st2" d="M667.8,1969.5H526c-5.5,0-10-4.5-10-10v-141.9c0-5.5,4.5-10,10-10h141.9c5.5,0,10,4.5,10,10v141.9
				C677.8,1965,673.4,1969.5,667.8,1969.5z M536,1949.5h121.9v-121.9H536V1949.5z"/>
		</g>
		<g>
			<rect x="824.4" y="1817.6" class="st1" width="141.9" height="141.9"/>
			<path class="st2" d="M966.3,1969.5H824.4c-5.5,0-10-4.5-10-10v-141.9c0-5.5,4.5-10,10-10h141.9c5.5,0,10,4.5,10,10v141.9
				C976.3,1965,971.8,1969.5,966.3,1969.5z M834.4,1949.5h121.9v-121.9H834.4V1949.5z"/>
		</g>
		<g>
			<rect x="1122.9" y="1817.6" class="st1" width="141.9" height="141.9"/>
			<path class="st2" d="M1264.7,1969.5h-141.9c-5.5,0-10-4.5-10-10v-141.9c0-5.5,4.5-10,10-10h141.9c5.5,0,10,4.5,10,10v141.9
				C1274.7,1965,1270.3,1969.5,1264.7,1969.5z M1132.9,1949.5h121.9v-121.9h-121.9V1949.5z"/>
		</g>
		<g>
			<rect x="1421.3" y="1817.6" class="st1" width="141.9" height="141.9"/>
			<path class="st2" d="M1563.2,1969.5h-141.9c-5.5,0-10-4.5-10-10v-141.9c0-5.5,4.5-10,10-10h141.9c5.5,0,10,4.5,10,10v141.9
				C1573.2,1965,1568.7,1969.5,1563.2,1969.5z M1431.3,1949.5h121.9v-121.9h-121.9V1949.5z"/>
		</g>
		<g>
			<rect x="1719.8" y="1817.6" class="st1" width="141.9" height="141.9"/>
			<path class="st2" d="M1861.6,1969.5h-141.9c-5.5,0-10-4.5-10-10v-141.9c0-5.5,4.5-10,10-10h141.9c5.5,0,10,4.5,10,10v141.9
				C1871.6,1965,1867.2,1969.5,1861.6,1969.5z M1729.8,1949.5h121.9v-121.9h-121.9V1949.5z"/>
		</g>
		<g>
			<rect x="2018.2" y="1817.6" class="st1" width="141.9" height="141.9"/>
			<path class="st2" d="M2160.1,1969.5h-141.9c-5.5,0-10-4.5-10-10v-141.9c0-5.5,4.5-10,10-10h141.9c5.5,0,10,4.5,10,10v141.9
				C2170.1,1965,2165.6,1969.5,2160.1,1969.5z M2028.2,1949.5h121.9v-121.9h-121.9V1949.5z"/>
		</g>
		<g>
			<rect x="2316.7" y="1817.6" class="st1" width="141.9" height="141.9"/>
			<path class="st2" d="M2458.5,1969.5h-141.9c-5.5,0-10-4.5-10-10v-141.9c0-5.5,4.5-10,10-10h141.9c5.5,0,10,4.5,10,10v141.9
				C2468.5,1965,2464.1,1969.5,2458.5,1969.5z M2326.7,1949.5h121.9v-121.9h-121.9V1949.5z"/>
		</g>
		<g>
			<rect x="2615.1" y="1817.6" class="st1" width="141.9" height="141.9"/>
			<path class="st2" d="M2757,1969.5h-141.9c-5.5,0-10-4.5-10-10v-141.9c0-5.5,4.5-10,10-10H2757c5.5,0,10,4.5,10,10v141.9
				C2767,1965,2762.5,1969.5,2757,1969.5z M2625.1,1949.5H2747v-121.9h-121.9V1949.5z"/>
		</g>
	</g>
	<g>
		<g>
			<g>
				<path class="st3" d="M1245.5,1568.6h-152.2c-59.7,0-108.6-48.9-108.6-108.6v-382.7c0-59.7,48.9-108.6,108.6-108.6h152.2
					c59.7,0,108.6,48.9,108.6,108.6V1460C1354.1,1519.7,1305.3,1568.6,1245.5,1568.6z"/>
				<path class="st2" d="M1245.5,1578.6h-152.2c-65.4,0-118.6-53.2-118.6-118.6v-382.7c0-65.4,53.2-118.6,118.6-118.6h152.2
					c65.4,0,118.6,53.2,118.6,118.6V1460C1364.1,1525.4,1310.9,1578.6,1245.5,1578.6z M1093.3,978.7c-54.4,0-98.6,44.2-98.6,98.6
					V1460c0,54.4,44.2,98.6,98.6,98.6h152.2c54.4,0,98.6-44.2,98.6-98.6v-382.7c0-54.4-44.2-98.6-98.6-98.6H1093.3z"/>
			</g>
			<g>
				<path class="st3" d="M1278.7,968.7h-218.6c-12.6,0-23-10.3-23-23v0c0-12.6,10.3-23,23-23h218.6c12.6,0,23,10.3,23,23v0
					C1301.7,958.4,1291.4,968.7,1278.7,968.7z"/>
				<path class="st2" d="M1278.7,978.7h-218.6c-18.2,0-33-14.8-33-33s14.8-33,33-33h218.6c18.2,0,33,14.8,33,33
					S1296.9,978.7,1278.7,978.7z M1060.1,932.8c-7.1,0-13,5.8-13,13c0,7.1,5.8,13,13,13h218.6c7.1,0,13-5.8,13-13
					c0-7.1-5.8-13-13-13H1060.1z"/>
			</g>
			<g>
				<path class="st3" d="M1278.7,922.8h-218.6c-12.6,0-23-10.3-23-23v0c0-12.6,10.3-23,23-23h218.6c12.6,0,23,10.3,23,23v0
					C1301.7,912.5,1291.4,922.8,1278.7,922.8z"/>
				<path class="st2" d="M1278.7,932.8h-218.6c-18.2,0-33-14.8-33-33s14.8-33,33-33h218.6c18.2,0,33,14.8,33,33
					S1296.9,932.8,1278.7,932.8z M1060.1,886.9c-7.1,0-13,5.8-13,13c0,7.1,5.8,13,13,13h218.6c7.1,0,13-5.8,13-13
					c0-7.1-5.8-13-13-13H1060.1z"/>
			</g>
		</g>
		<g>
			<g>
				<path class="st5" d="M1530.3,935.3c-82.1-69.5-211.6-51.6-211.6-51.6s3.6,130.7,85.7,200.2c82.1,69.5,211.6,51.6,211.6,51.6
					S1612.4,1004.9,1530.3,935.3z"/>
				<path class="st2" d="M1578,1147.7c-11.1,0-24-0.5-38-1.8c-57.8-5.7-107-24.4-142.1-54.2s-61.7-75.1-76.9-131.2
					c-11.3-42-12.4-75-12.4-76.4c-0.1-5.1,3.6-9.5,8.6-10.2c1.4-0.2,34.1-4.6,77.4-0.3c57.8,5.7,107,24.4,142.1,54.2
					c35.1,29.7,61.7,75.1,76.9,131.2c11.3,42,12.4,75,12.4,76.4c0.1,5.1-3.6,9.5-8.6,10.2C1616.5,1145.6,1601.2,1147.7,1578,1147.7z
					 M1329.2,892.8c1.1,12.4,3.9,35.8,11.3,62.9c9.8,36.2,30,86.5,70.3,120.7c65.5,55.4,164.2,52.6,194.6,50.2
					c-1.1-12.4-3.9-35.8-11.3-62.9c-9.8-36.2-30-86.5-70.3-120.7C1458.3,887.5,1359.6,890.4,1329.2,892.8z"/>
			</g>
			<g>
				<path class="st2" d="M1564.9,1102.3c-2.3,0-4.6-0.8-6.5-2.4l-195.1-165.2c-4.2-3.6-4.7-9.9-1.2-14.1c3.6-4.2,9.9-4.7,14.1-1.2
					l195.1,165.2c4.2,3.6,4.7,9.9,1.2,14.1C1570.5,1101.1,1567.7,1102.3,1564.9,1102.3z"/>
			</g>
		</g>
		<g>
			<g>
				<path class="st5" d="M956.6,935.3C874.5,865.8,745,883.8,745,883.8s3.6,130.7,85.7,200.2s211.6,51.6,211.6,51.6
					S1038.7,1004.9,956.6,935.3z"/>
				<path class="st2" d="M1004.3,1147.7c-11.1,0-24-0.5-38-1.8c-57.8-5.7-107-24.4-142.1-54.2s-61.7-75.1-76.9-131.2
					c-11.3-42-12.4-75-12.4-76.4c-0.1-5.1,3.6-9.5,8.6-10.2c1.4-0.2,34.1-4.6,77.4-0.3c57.8,5.7,107,24.4,142.1,54.2
					c35.1,29.7,61.7,75.1,76.9,131.2c11.3,42,12.4,75,12.4,76.4c0.1,5.1-3.6,9.5-8.6,10.2
					C1042.8,1145.6,1027.5,1147.7,1004.3,1147.7z M755.6,892.8c1.1,12.4,3.9,35.8,11.3,62.9c9.8,36.2,30,86.5,70.3,120.7
					c65.5,55.4,164.2,52.6,194.6,50.2c-1.1-12.4-3.9-35.8-11.3-62.9c-9.8-36.2-30-86.5-70.3-120.7
					C884.7,887.5,786,890.4,755.6,892.8z"/>
			</g>
			<g>
				<path class="st2" d="M991.2,1102.3c-2.3,0-4.6-0.8-6.5-2.4L789.7,934.7c-4.2-3.6-4.7-9.9-1.2-14.1c3.6-4.2,9.9-4.7,14.1-1.2
					l195.1,165.2c4.2,3.6,4.7,9.9,1.2,14.1C996.9,1101.1,994.1,1102.3,991.2,1102.3z"/>
			</g>
		</g>
		<g>
			<g>
				<path class="st5" d="M1873.6,935.3c82.1-69.5,211.6-51.6,211.6-51.6s-3.6,130.7-85.7,200.2c-82.1,69.5-211.6,51.6-211.6,51.6
					S1791.5,1004.9,1873.6,935.3z"/>
				<path class="st2" d="M1825.9,1147.7c-23.2,0-38.5-2.1-39.4-2.2c-5-0.7-8.8-5.1-8.6-10.2c0-1.4,1.1-34.3,12.4-76.4
					c15.1-56.1,41.7-101.5,76.9-131.2c35.1-29.7,84.3-48.5,142.1-54.2c43.3-4.3,76,0.2,77.4,0.3c5,0.7,8.8,5.1,8.6,10.2
					c0,1.4-1.1,34.3-12.4,76.4c-15.1,56.1-41.7,101.5-76.9,131.2s-84.3,48.5-142.1,54.2C1849.9,1147.2,1837,1147.7,1825.9,1147.7z
					 M1798.5,1126.6c12.4,1,36,2.1,63.9-0.7c37.3-3.7,90.3-15.3,130.6-49.5c40.3-34.1,60.5-84.5,70.3-120.7
					c7.4-27.1,10.2-50.6,11.3-62.9c-12.4-1-36-2.1-63.9,0.7c-37.3,3.7-90.3,15.3-130.6,49.5
					C1814.6,998.4,1801.2,1096.2,1798.5,1126.6z"/>
			</g>
			<g>
				<path class="st2" d="M1839,1102.3c-2.8,0-5.7-1.2-7.6-3.5c-3.6-4.2-3-10.5,1.2-14.1l195.1-165.2c4.2-3.6,10.5-3,14.1,1.2
					c3.6,4.2,3,10.5-1.2,14.1l-195.1,165.2C1843.6,1101.5,1841.3,1102.3,1839,1102.3z"/>
			</g>
		</g>
		<g>
			<g>
				<path class="st6" d="M2128.5,745.1l-906.6,906.6c-43.4,43.4-114.4,43.4-157.8,0l0,0c-43.4-43.4-43.4-114.4,0-157.8l906.6-906.6
					c43.4-43.4,114.4-43.4,157.8,0l0,0C2171.9,630.8,2171.9,701.7,2128.5,745.1z"/>
				<path class="st2" d="M1143,1694.3c-31.1,0-62.3-11.8-85.9-35.5c-22.9-22.9-35.5-53.4-35.5-85.9c0-32.6,12.6-63.1,35.5-86
					l906.6-906.6c22.9-22.9,53.4-35.5,85.9-35.5s63.1,12.6,85.9,35.5s35.5,53.4,35.5,85.9s-12.6,63.1-35.5,85.9L1229,1658.8
					C1205.3,1682.5,1174.1,1694.3,1143,1694.3z M2049.6,564.8c-27.2,0-52.7,10.5-71.8,29.6L1071.2,1501
					c-19.1,19.1-29.6,44.6-29.6,71.8c0,27.2,10.5,52.7,29.6,71.8c39.6,39.6,104,39.6,143.6,0l906.6-906.6l7.1,7.1l-7.1-7.1
					c19.1-19.1,29.6-44.6,29.6-71.8c0-27.2-10.5-52.7-29.6-71.8C2102.3,575.3,2076.8,564.8,2049.6,564.8z"/>
			</g>
			<g>
				<path class="st7" d="M1253.8,1579.2L1253.8,1579.2c-11.2,11.2-29.5,11.2-40.7,0l-76.4-76.4c-11.2-11.2-11.2-29.5,0-40.7l0,0
					c11.2-11.2,29.5-11.2,40.7,0l76.4,76.4C1265,1549.7,1265,1568,1253.8,1579.2z"/>
				<path class="st2" d="M1233.4,1597.6c-9.9,0-19.9-3.8-27.4-11.3l-76.4-76.4c-7.3-7.3-11.3-17.1-11.3-27.4
					c0-10.4,4-20.1,11.3-27.4c7.3-7.3,17.1-11.3,27.4-11.3c10.4,0,20.1,4,27.4,11.3l76.4,76.4c15.1,15.1,15.1,39.8,0,54.9h0
					C1253.3,1593.8,1243.4,1597.6,1233.4,1597.6z M1246.7,1572.1l7.1,7.1L1246.7,1572.1c7.3-7.3,7.3-19.3,0-26.6l-76.4-76.4
					c-3.5-3.5-8.3-5.5-13.3-5.5c-5,0-9.8,1.9-13.3,5.5c-3.5,3.5-5.5,8.3-5.5,13.3c0,5,1.9,9.8,5.5,13.3l76.4,76.4
					c3.5,3.5,8.3,5.5,13.3,5.5C1238.5,1577.6,1243.2,1575.7,1246.7,1572.1z"/>
			</g>
			<g>
				<path class="st7" d="M1389.8,1443.2L1389.8,1443.2c-11.2,11.2-29.5,11.2-40.7,0l-76.4-76.4c-11.2-11.2-11.2-29.5,0-40.7l0,0
					c11.2-11.2,29.5-11.2,40.7,0l76.4,76.4C1401.1,1413.6,1401.1,1431.9,1389.8,1443.2z"/>
				<path class="st2" d="M1369.5,1461.6c-10.4,0-20.1-4-27.4-11.3l-76.4-76.4c-7.3-7.3-11.3-17.1-11.3-27.4c0-10.4,4-20.1,11.3-27.4
					c7.3-7.3,17.1-11.3,27.4-11.3c10.4,0,20.1,4,27.4,11.3l76.4,76.4c7.3,7.3,11.3,17.1,11.3,27.4s-4,20.1-11.3,27.4
					C1389.6,1457.5,1379.9,1461.6,1369.5,1461.6z M1293.1,1327.6c-5,0-9.8,1.9-13.3,5.5c-3.5,3.5-5.5,8.3-5.5,13.3
					c0,5,1.9,9.8,5.5,13.3l76.4,76.4c3.5,3.5,8.3,5.5,13.3,5.5c5,0,9.8-1.9,13.3-5.5c0,0,0,0,0,0c3.5-3.5,5.5-8.3,5.5-13.3
					s-1.9-9.8-5.5-13.3l-76.4-76.4C1302.8,1329.5,1298.1,1327.6,1293.1,1327.6z"/>
			</g>
			<g>
				<path class="st7" d="M1525.9,1307.1L1525.9,1307.1c-11.2,11.2-29.5,11.2-40.7,0l-76.4-76.4c-11.2-11.2-11.2-29.5,0-40.7h0
					c11.2-11.2,29.5-11.2,40.7,0l76.4,76.4C1537.1,1277.6,1537.1,1295.9,1525.9,1307.1z"/>
				<path class="st2" d="M1505.5,1325.5c-10.4,0-20.1-4-27.4-11.3l-76.4-76.4c-15.1-15.1-15.1-39.8,0-54.9
					c15.1-15.1,39.8-15.1,54.9,0l76.4,76.4c7.3,7.3,11.3,17.1,11.3,27.4c0,10.4-4,20.1-11.3,27.4
					C1525.7,1321.5,1515.9,1325.5,1505.5,1325.5z M1429.1,1191.6c-5,0-9.8,1.9-13.3,5.5c-7.3,7.3-7.3,19.3,0,26.6l76.4,76.4
					c3.5,3.5,8.3,5.5,13.3,5.5s9.8-1.9,13.3-5.5c3.5-3.5,5.5-8.3,5.5-13.3c0-5-1.9-9.8-5.5-13.3l-76.4-76.4
					C1438.9,1193.5,1434.2,1191.6,1429.1,1191.6z"/>
			</g>
			<g>
				<path class="st7" d="M1661.9,1171.1L1661.9,1171.1c-11.2,11.2-29.5,11.2-40.7,0l-76.4-76.4c-11.2-11.2-11.2-29.5,0-40.7l0,0
					c11.2-11.2,29.5-11.2,40.7,0l76.4,76.4C1673.1,1141.5,1673.1,1159.9,1661.9,1171.1z"/>
				<path class="st2" d="M1641.6,1189.5c-10.4,0-20.1-4-27.4-11.3l-76.4-76.4c-7.3-7.3-11.3-17.1-11.3-27.4s4-20.1,11.3-27.4
					c15.1-15.1,39.8-15.1,54.9,0l76.4,76.4c7.3,7.3,11.3,17.1,11.3,27.4c0,10.4-4,20.1-11.3,27.4
					C1661.7,1185.4,1651.9,1189.5,1641.6,1189.5z M1565.2,1055.5c-5,0-9.8,1.9-13.3,5.5c-3.5,3.5-5.5,8.3-5.5,13.3s1.9,9.8,5.5,13.3
					l76.4,76.4c3.5,3.5,8.3,5.5,13.3,5.5s9.8-1.9,13.3-5.5c3.5-3.5,5.5-8.3,5.5-13.3c0-5-1.9-9.8-5.5-13.3l-76.4-76.4
					C1574.9,1057.5,1570.2,1055.5,1565.2,1055.5z"/>
			</g>
			<g>
				<path class="st7" d="M1798,1035L1798,1035c-11.2,11.2-29.5,11.2-40.7,0l-76.4-76.4c-11.2-11.2-11.2-29.5,0-40.7l0,0
					c11.2-11.2,29.5-11.2,40.7,0l76.4,76.4C1809.2,1005.5,1809.2,1023.8,1798,1035z"/>
				<path class="st2" d="M1777.6,1053.4c-9.9,0-19.9-3.8-27.4-11.3l-76.4-76.4c-7.3-7.3-11.3-17.1-11.3-27.4s4-20.1,11.3-27.4
					c15.1-15.1,39.8-15.1,54.9,0l76.4,76.4c7.3,7.3,11.3,17.1,11.3,27.4c0,10.4-4,20.1-11.3,27.4
					C1797.5,1049.7,1787.5,1053.4,1777.6,1053.4z M1701.2,919.5c-4.8,0-9.6,1.8-13.3,5.5c-3.5,3.5-5.5,8.3-5.5,13.3
					s1.9,9.8,5.5,13.3l76.4,76.4c3.5,3.5,8.3,5.5,13.3,5.5s9.8-1.9,13.3-5.5c3.5-3.5,5.5-8.3,5.5-13.3c0-5-1.9-9.8-5.5-13.3
					l-76.4-76.4C1710.8,921.3,1706,919.5,1701.2,919.5z"/>
			</g>
			<g>
				<path class="st7" d="M1934,899L1934,899c-11.2,11.2-29.5,11.2-40.7,0l-76.4-76.4c-11.2-11.2-11.2-29.5,0-40.7l0,0
					c11.2-11.2,29.5-11.2,40.7,0l76.4,76.4C1945.2,869.4,1945.2,887.8,1934,899z"/>
				<path class="st2" d="M1913.6,917.4c-10.4,0-20.1-4-27.4-11.3l-76.4-76.4c-7.3-7.3-11.3-17.1-11.3-27.4c0-10.4,4-20.1,11.3-27.4
					c15.1-15.1,39.8-15.1,54.9,0l76.4,76.4c7.3,7.3,11.3,17.1,11.3,27.4c0,10.4-4,20.1-11.3,27.4
					C1933.8,913.4,1924,917.4,1913.6,917.4z M1837.2,783.4c-5,0-9.8,1.9-13.3,5.5c-3.5,3.5-5.5,8.3-5.5,13.3c0,5,1.9,9.8,5.5,13.3
					l76.4,76.4c3.5,3.5,8.3,5.5,13.3,5.5c5,0,9.8-1.9,13.3-5.5c3.5-3.5,5.5-8.3,5.5-13.3c0-5-1.9-9.8-5.5-13.3l-76.4-76.4
					C1847,785.4,1842.3,783.4,1837.2,783.4z"/>
			</g>
			<g>
				<path class="st7" d="M2070.1,762.9L2070.1,762.9c-11.2,11.2-29.5,11.2-40.7,0l-76.4-76.4c-11.2-11.2-11.2-29.5,0-40.7l0,0
					c11.2-11.2,29.5-11.2,40.7,0l76.4,76.4C2081.3,733.4,2081.3,751.7,2070.1,762.9z"/>
				<path class="st2" d="M2049.7,781.3c-10.4,0-20.1-4-27.4-11.3l-76.4-76.4c-7.3-7.3-11.3-17.1-11.3-27.4c0-10.4,4-20.1,11.3-27.4
					c15.1-15.1,39.8-15.1,54.9,0l76.4,76.4c7.3,7.3,11.3,17.1,11.3,27.4c0,10.4-4,20.1-11.3,27.4
					C2069.8,777.3,2060.1,781.3,2049.7,781.3z M1973.3,647.4c-5,0-9.8,1.9-13.3,5.5c-3.5,3.5-5.5,8.3-5.5,13.3c0,5,1.9,9.8,5.5,13.3
					l76.4,76.4c3.5,3.5,8.3,5.5,13.3,5.5c5,0,9.8-1.9,13.3-5.5c3.5-3.5,5.5-8.3,5.5-13.3c0-5-1.9-9.8-5.5-13.3l-76.4-76.4
					C1983.1,649.3,1978.3,647.4,1973.3,647.4z"/>
			</g>
		</g>
		<g>
			<g>
				<path class="st7" d="M984.8,1137.5V760.4c0-49.7,9.8-97.9,29.1-143.4c18.7-44.1,45.5-83.7,79.7-117.9
					c34.1-34.1,73.8-60.9,117.9-79.7c45.5-19.3,93.7-29.1,143.4-29.1h83.7c49.7,0,97.9,9.8,143.4,29.1
					c44.1,18.7,83.7,45.5,117.9,79.7c34.1,34.1,60.9,73.8,79.7,117.9c19.3,45.5,29.1,93.7,29.1,143.4v377.1h110V760.4
					c0-264-216-480-480-480h-83.7c-264,0-480,216-480,480v377.1H984.8z"/>
				<path class="st2" d="M1918.5,1147.5h-110c-5.5,0-10-4.5-10-10V760.4c0-48.3-9.5-95.2-28.3-139.5
					c-18.2-42.9-44.3-81.5-77.5-114.7c-33.2-33.2-71.8-59.3-114.7-77.5c-44.2-18.8-91.2-28.3-139.5-28.3h-83.7
					c-48.3,0-95.2,9.5-139.5,28.3c-42.9,18.2-81.5,44.3-114.7,77.5c-33.2,33.2-59.3,71.8-77.5,114.7
					c-18.8,44.2-28.3,91.2-28.3,139.5v377.1c0,5.5-4.5,10-10,10h-110c-5.5,0-10-4.5-10-10V760.4c0-65.9,13-129.9,38.7-190.3
					c24.8-58.3,60.2-110.7,105.3-155.8c45.1-45.1,97.5-80.5,155.8-105.3c60.4-25.7,124.4-38.7,190.3-38.7h83.7
					c65.9,0,129.9,13,190.3,38.7c58.3,24.8,110.7,60.2,155.8,105.3c45.1,45.1,80.5,97.5,105.3,155.8
					c25.7,60.4,38.7,124.4,38.7,190.3v377.1C1928.5,1143,1924,1147.5,1918.5,1147.5z M1818.5,1127.5h90V760.4
					c0-63.2-12.5-124.6-37.1-182.5c-23.8-55.9-57.7-106.2-101-149.5c-43.3-43.3-93.5-77.2-149.5-101
					c-57.9-24.6-119.3-37.1-182.5-37.1h-83.7c-63.2,0-124.6,12.5-182.5,37.1c-55.9,23.8-106.2,57.7-149.5,101
					c-43.3,43.3-77.2,93.5-101,149.5c-24.6,57.9-37.1,119.3-37.1,182.5v367.1h90V760.4c0-51,10.1-100.6,29.9-147.3
					c19.2-45.2,46.7-86,81.8-121c35.1-35.1,75.8-62.6,121-81.8c46.7-19.8,96.3-29.9,147.3-29.9h83.7c51,0,100.6,10.1,147.3,29.9
					c45.2,19.2,86,46.7,121,81.8c35.1,35.1,62.6,75.8,81.8,121c19.8,46.7,29.9,96.3,29.9,147.3V1127.5z"/>
			</g>
			<g>
				<g>
					<path class="st7" d="M2107.1,1139.3H686.2c-26,0-47.2-21.3-47.2-47.2v0c0-26,21.3-47.2,47.2-47.2h1420.9
						c26,0,47.2,21.3,47.2,47.2v0C2154.3,1118.1,2133.1,1139.3,2107.1,1139.3z"/>
					<path class="st2" d="M2107.1,1149.3H686.2c-31.6,0-57.2-25.7-57.2-57.2s25.7-57.2,57.2-57.2h1420.9c31.6,0,57.2,25.7,57.2,57.2
						C2164.3,1123.6,2138.6,1149.3,2107.1,1149.3z M686.2,1054.8c-20.5,0-37.2,16.7-37.2,37.2c0,20.5,16.7,37.2,37.2,37.2h1420.9
						c20.5,0,37.2-16.7,37.2-37.2s-16.7-37.2-37.2-37.2H686.2z"/>
				</g>
				<g>
					<polygon class="st7" points="2042.2,1139.3 2031.3,1139.3 2041.6,1149.6 					"/>
					<path class="st2" d="M2041.6,1159.6c-2.6,0-5.2-1-7.1-2.9l-10.3-10.3c-2.9-2.9-3.7-7.2-2.2-10.9c1.5-3.7,5.2-6.2,9.2-6.2h10.9
						c2.8,0,5.4,1.1,7.3,3.2c1.9,2,2.9,4.7,2.7,7.5l-0.7,10.3c-0.3,3.9-2.8,7.3-6.5,8.7C2044,1159.4,2042.8,1159.6,2041.6,1159.6z"
						/>
				</g>
				<g>
					
						<rect x="1318.2" y="1298.7" transform="matrix(0.7071 -0.7071 0.7071 0.7071 -583.316 1435.8926)" class="st7" width="246.8" height="246.8"/>
					<path class="st2" d="M1441.6,1606.6c-2.6,0-5.1-1-7.1-2.9l-174.5-174.5c-1.9-1.9-2.9-4.4-2.9-7.1s1.1-5.2,2.9-7.1l174.5-174.5
						c1.9-1.9,4.4-2.9,7.1-2.9s5.2,1.1,7.1,2.9l174.5,174.5c3.9,3.9,3.9,10.2,0,14.1l-174.5,174.5
						C1446.7,1605.6,1444.2,1606.6,1441.6,1606.6z M1281.3,1422.1l160.3,160.3l160.3-160.3l-160.3-160.3L1281.3,1422.1z"/>
				</g>
				<g>
					
						<rect x="1667.2" y="1298.7" transform="matrix(0.7071 -0.7071 0.7071 0.7071 -481.1049 1682.6516)" class="st7" width="246.8" height="246.8"/>
					<path class="st2" d="M1790.6,1606.6c-2.6,0-5.1-1-7.1-2.9L1609,1429.1c-3.9-3.9-3.9-10.2,0-14.1l174.5-174.5
						c1.9-1.9,4.4-2.9,7.1-2.9s5.2,1.1,7.1,2.9l174.5,174.5c3.9,3.9,3.9,10.2,0,14.1l-174.5,174.5
						C1795.7,1605.6,1793.1,1606.6,1790.6,1606.6z M1630.2,1422.1l160.3,160.3l160.3-160.3l-160.3-160.3L1630.2,1422.1z"/>
				</g>
				<g>
					
						<rect x="1143.8" y="1473.2" transform="matrix(0.7071 -0.7071 0.7071 0.7071 -757.8014 1363.6178)" class="st7" width="246.8" height="246.8"/>
					<path class="st2" d="M1267.1,1781c-2.6,0-5.1-1-7.1-2.9l-174.5-174.5c-3.9-3.9-3.9-10.2,0-14.1l174.5-174.5
						c3.9-3.9,10.2-3.9,14.1,0l174.5,174.5c1.9,1.9,2.9,4.4,2.9,7.1s-1.1,5.2-2.9,7.1l-174.5,174.5
						C1272.3,1780.1,1269.7,1781,1267.1,1781z M1106.8,1596.6l160.3,160.3l160.3-160.3l-160.3-160.3L1106.8,1596.6z"/>
				</g>
				<g>
					
						<rect x="1492.7" y="1473.2" transform="matrix(0.7071 -0.7071 0.7071 0.7071 -655.5903 1610.3773)" class="st7" width="246.8" height="246.8"/>
					<path class="st2" d="M1616.1,1781c-2.6,0-5.1-1-7.1-2.9l-174.5-174.5c-3.9-3.9-3.9-10.2,0-14.1L1609,1415
						c3.9-3.9,10.2-3.9,14.1,0l174.5,174.5c3.9,3.9,3.9,10.2,0,14.1l-174.5,174.5C1621.2,1780.1,1618.7,1781,1616.1,1781z
						 M1455.8,1596.6l160.3,160.3l160.3-160.3l-160.3-160.3L1455.8,1596.6z"/>
				</g>
				<g>
					<polygon class="st7" points="984.4,1139.3 1092.6,1247.6 1200.9,1139.3 					"/>
					<path class="st2" d="M1092.6,1257.6c-2.6,0-5.1-1-7.1-2.9l-108.3-108.3c-2.9-2.9-3.7-7.2-2.2-10.9c1.5-3.7,5.2-6.2,9.2-6.2
						h216.5c4,0,7.7,2.4,9.2,6.2c1.5,3.7,0.7,8-2.2,10.9l-108.3,108.3C1097.8,1256.6,1095.2,1257.6,1092.6,1257.6z M1008.5,1149.3
						l84.1,84.1l84.1-84.1H1008.5z"/>
				</g>
				<g>
					<polygon class="st7" points="751.1,1139.3 757.2,1234.1 851.9,1139.3 					"/>
					<path class="st2" d="M757.1,1244.1c-1.2,0-2.4-0.2-3.5-0.6c-3.7-1.4-6.2-4.8-6.5-8.7l-6.1-94.8c-0.2-2.8,0.8-5.5,2.7-7.5
						c1.9-2,4.5-3.2,7.3-3.2h100.9c4,0,7.7,2.4,9.2,6.2c1.5,3.7,0.7,8-2.2,10.9l-94.8,94.8C762.3,1243.1,759.8,1244.1,757.1,1244.1z
						 M761.7,1149.3l4,62.1l62.1-62.1H761.7z"/>
				</g>
				<g>
					
						<rect x="969.3" y="1298.7" transform="matrix(0.7071 -0.7071 0.7071 0.7071 -685.5272 1189.1327)" class="st7" width="246.8" height="246.8"/>
					<path class="st2" d="M1092.6,1606.6c-2.6,0-5.1-1-7.1-2.9l-174.5-174.5c-3.9-3.9-3.9-10.2,0-14.1l174.5-174.5
						c1.9-1.9,4.4-2.9,7.1-2.9s5.2,1.1,7.1,2.9l174.5,174.5c3.9,3.9,3.9,10.2,0,14.1l-174.5,174.5
						C1097.8,1605.6,1095.2,1606.6,1092.6,1606.6z M932.3,1422.1l160.3,160.3l160.3-160.3l-160.3-160.3L932.3,1422.1z"/>
				</g>
				<g>
					<polygon class="st7" points="1441.6,1247.6 1333.4,1139.3 1200.9,1139.3 1092.6,1247.6 1267.1,1422.1 					"/>
					<path class="st2" d="M1267.1,1432.1c-2.7,0-5.2-1.1-7.1-2.9l-174.5-174.5c-1.9-1.9-2.9-4.4-2.9-7.1s1.1-5.2,2.9-7.1
						l108.3-108.3c1.9-1.9,4.4-2.9,7.1-2.9h132.5c2.7,0,5.2,1.1,7.1,2.9l108.3,108.3c1.9,1.9,2.9,4.4,2.9,7.1s-1.1,5.2-2.9,7.1
						l-174.5,174.5C1272.3,1431,1269.8,1432.1,1267.1,1432.1z M1106.8,1247.6l160.3,160.3l160.3-160.3l-98.3-98.3H1205
						L1106.8,1247.6z"/>
				</g>
				<g>
					<polygon class="st7" points="1790.6,1596.6 1965.1,1771 2004.1,1732 2020.5,1477.5 1965.1,1422.1 					"/>
					<path class="st2" d="M1965.1,1781c-2.6,0-5.1-1-7.1-2.9l-174.5-174.5c-3.9-3.9-3.9-10.2,0-14.1L1958,1415
						c3.9-3.9,10.2-3.9,14.1,0l55.4,55.4c2,2,3.1,4.8,2.9,7.7l-16.4,254.5c-0.2,2.4-1.2,4.7-2.9,6.4l-39.1,39.1
						C1970.2,1780.1,1967.6,1781,1965.1,1781z M1804.7,1596.6l160.3,160.3l29.3-29.3l15.8-246.2l-45.2-45.2L1804.7,1596.6z"/>
				</g>
				<g>
					<polygon class="st7" points="1549.9,1139.3 1333.4,1139.3 1441.6,1247.6 					"/>
					<path class="st2" d="M1441.6,1257.6c-2.6,0-5.1-1-7.1-2.9l-108.3-108.3c-2.9-2.9-3.7-7.2-2.2-10.9s5.2-6.2,9.2-6.2h216.5
						c4,0,7.7,2.4,9.2,6.2c1.5,3.7,0.7,8-2.2,10.9l-108.3,108.3C1446.7,1256.6,1444.2,1257.6,1441.6,1257.6z M1357.5,1149.3
						l84.1,84.1l84.1-84.1H1357.5z"/>
				</g>
				<g>
					<polygon class="st7" points="1218.1,1820.1 1316.2,1820.1 1267.1,1771 					"/>
					<path class="st2" d="M1316.2,1830.1h-98.1c-4,0-7.7-2.4-9.2-6.2c-1.5-3.7-0.7-8,2.2-10.9l49-49c3.9-3.9,10.2-3.9,14.1,0l49,49
						c2.9,2.9,3.7,7.2,2.2,10.9C1323.9,1827.6,1320.2,1830.1,1316.2,1830.1z M1242.2,1810.1h49.8l-24.9-24.9L1242.2,1810.1z"/>
				</g>
				<g>
					<path class="st7" d="M869.9,1819.3c3.8,0.5,7.7,0.7,11.6,0.7h85.7l-49-49L869.9,1819.3z"/>
					<path class="st2" d="M967.2,1830.1h-85.7c-4.3,0-8.6-0.3-12.9-0.8c-3.8-0.5-7-3.1-8.2-6.7s-0.3-7.6,2.4-10.3l48.3-48.3
						c3.9-3.9,10.2-3.9,14.1,0l49,49c2.9,2.9,3.7,7.2,2.2,10.9C974.9,1827.6,971.2,1830.1,967.2,1830.1z M893.3,1810.1h49.8
						l-24.9-24.9L893.3,1810.1z"/>
				</g>
				<g>
					<polygon class="st7" points="1441.6,1596.6 1267.1,1771 1316.2,1820.1 1567.1,1820.1 1616.1,1771 					"/>
					<path class="st2" d="M1567.1,1830.1h-250.9c-2.7,0-5.2-1.1-7.1-2.9l-49-49c-1.9-1.9-2.9-4.4-2.9-7.1s1.1-5.2,2.9-7.1
						l174.5-174.5c3.9-3.9,10.2-3.9,14.1,0l174.5,174.5c3.9,3.9,3.9,10.2,0,14.1l-49,49C1572.3,1829,1569.7,1830.1,1567.1,1830.1z
						 M1320.3,1810.1h242.6l39-39l-160.3-160.3L1281.3,1771L1320.3,1810.1z"/>
				</g>
				<g>
					<polygon class="st7" points="1092.6,1596.6 918.2,1771 967.2,1820.1 1218.1,1820.1 1267.1,1771 					"/>
					<path class="st2" d="M1218.1,1830.1H967.2c-2.7,0-5.2-1.1-7.1-2.9l-49-49c-3.9-3.9-3.9-10.2,0-14.1l174.5-174.5
						c3.9-3.9,10.2-3.9,14.1,0l174.5,174.5c3.9,3.9,3.9,10.2,0,14.1l-49,49C1223.3,1829,1220.8,1830.1,1218.1,1830.1z M971.3,1810.1
						H1214l39-39l-160.3-160.3L932.3,1771L971.3,1810.1z"/>
				</g>
				<g>
					<polygon class="st7" points="2020.5,1477.5 2028.1,1359 1965.1,1422.1 					"/>
					<path class="st2" d="M2020.5,1487.5c-2.6,0-5.2-1-7.1-2.9l-55.4-55.4c-3.9-3.9-3.9-10.2,0-14.1l63-63c2.9-2.9,7.4-3.8,11.2-2
						c3.8,1.7,6.1,5.6,5.9,9.8l-7.6,118.5c-0.3,3.9-2.8,7.3-6.5,8.7C2022.9,1487.3,2021.7,1487.5,2020.5,1487.5z M1979.2,1422.1
						l32.7,32.7l4.5-70L1979.2,1422.1z"/>
				</g>
				<g>
					<path class="st7" d="M2004.1,1732l-39.1,39.1l16.8,16.8c12.7-14.7,20.8-33.5,22.1-54.3L2004.1,1732z"/>
					<path class="st2" d="M1981.9,1797.9c-2.6,0-5.2-1-7.1-2.9l-16.8-16.8c-3.9-3.9-3.9-10.2,0-14.1l39.1-39.1
						c2.9-2.9,7.4-3.8,11.2-2c3.8,1.7,6.1,5.6,5.9,9.8l-0.1,1.6c-1.4,22.4-9.9,43.2-24.5,60.2c-1.8,2.1-4.4,3.4-7.2,3.5
						C1982.2,1797.9,1982,1797.9,1981.9,1797.9z M1979.2,1771l1.6,1.6c1.7-2.5,3.2-5.1,4.5-7.8L1979.2,1771z"/>
				</g>
				<g>
					<path class="st7" d="M1916.1,1820c26.2-1.2,49.6-13.4,65.8-32.1l-16.8-16.8L1916.1,1820z"/>
					<path class="st2" d="M1916.1,1830c-3.9,0-7.5-2.3-9.1-6c-1.7-3.8-0.8-8.2,2.1-11.1l48.9-48.9c3.9-3.9,10.2-3.9,14.1,0
						l16.8,16.8c3.7,3.7,3.9,9.6,0.5,13.6c-18.3,21.3-44.9,34.3-72.9,35.6C1916.5,1830,1916.3,1830,1916.1,1830z M1965.1,1785.2
						l-15.9,15.9c6.8-3.5,13.1-7.8,18.7-13.1L1965.1,1785.2z"/>
				</g>
				<g>
					<path class="st7" d="M1790.6,1596.6L1616.1,1771l49,49h246.7c1.5,0,2.9,0,4.3-0.1l48.9-48.9L1790.6,1596.6z"/>
					<path class="st2" d="M1911.8,1830.1h-246.7c-2.7,0-5.2-1.1-7.1-2.9l-49-49c-3.9-3.9-3.9-10.2,0-14.1l174.5-174.5
						c3.9-3.9,10.2-3.9,14.1,0l174.5,174.5c3.9,3.9,3.9,10.2,0,14.1l-48.9,48.9c-1.8,1.8-4.1,2.8-6.6,2.9
						C1915,1830,1913.4,1830.1,1911.8,1830.1z M1669.3,1810.1h242.5c0,0,0.1,0,0.1,0l39-39l-160.3-160.3L1630.2,1771L1669.3,1810.1z
						"/>
				</g>
				<g>
					<polygon class="st7" points="1567.1,1820.1 1665.1,1820.1 1616.1,1771 					"/>
					<path class="st2" d="M1665.1,1830.1h-98.1c-4,0-7.7-2.4-9.2-6.2c-1.5-3.7-0.7-8,2.2-10.9l49-49c1.9-1.9,4.4-2.9,7.1-2.9l0,0
						c2.7,0,5.2,1.1,7.1,2.9l49,49c2.9,2.9,3.7,7.2,2.2,10.9C1672.8,1827.6,1669.2,1830.1,1665.1,1830.1z M1591.2,1810.1h49.8
						l-24.9-24.9L1591.2,1810.1z"/>
				</g>
				<g>
					<polygon class="st7" points="1441.6,1247.6 1616.1,1422.1 1790.6,1247.6 1682.3,1139.3 1549.9,1139.3 					"/>
					<path class="st2" d="M1616.1,1432.1c-2.7,0-5.2-1.1-7.1-2.9l-174.5-174.5c-1.9-1.9-2.9-4.4-2.9-7.1s1.1-5.2,2.9-7.1
						l108.3-108.3c1.9-1.9,4.4-2.9,7.1-2.9h132.5c2.7,0,5.2,1.1,7.1,2.9l108.3,108.3c1.9,1.9,2.9,4.4,2.9,7.1s-1.1,5.2-2.9,7.1
						l-174.5,174.5C1621.3,1431,1618.8,1432.1,1616.1,1432.1z M1455.8,1247.6l160.3,160.3l160.3-160.3l-98.3-98.3H1554
						L1455.8,1247.6z"/>
				</g>
				<g>
					<polygon class="st7" points="1898.8,1139.3 1682.3,1139.3 1790.6,1247.6 					"/>
					<path class="st2" d="M1790.6,1257.6c-2.6,0-5.1-1-7.1-2.9l-108.3-108.3c-2.9-2.9-3.7-7.2-2.2-10.9c1.5-3.7,5.2-6.2,9.2-6.2
						h216.5c4,0,7.7,2.4,9.2,6.2c1.5,3.7,0.7,8-2.2,10.9l-108.3,108.3C1795.7,1256.6,1793.1,1257.6,1790.6,1257.6z M1706.5,1149.3
						l84.1,84.1l84.1-84.1H1706.5z"/>
				</g>
				<g>
					<polygon class="st7" points="1965.1,1422.1 2028.1,1359 2041.6,1149.6 2031.3,1139.3 1898.8,1139.3 1790.6,1247.6 					"/>
					<path class="st2" d="M1965.1,1432.1c-2.7,0-5.2-1.1-7.1-2.9l-174.5-174.5c-1.9-1.9-2.9-4.4-2.9-7.1s1.1-5.2,2.9-7.1
						l108.3-108.3c1.9-1.9,4.4-2.9,7.1-2.9h132.5c2.7,0,5.2,1.1,7.1,2.9l10.3,10.3c2,2,3.1,4.8,2.9,7.7l-13.5,209.4
						c-0.2,2.4-1.2,4.7-2.9,6.4l-63,63C1970.3,1431,1967.7,1432.1,1965.1,1432.1z M1804.7,1247.6l160.3,160.3l53.3-53.3l12.9-201.1
						l-4.2-4.2H1903L1804.7,1247.6z"/>
				</g>
				<g>
					<path class="st7" d="M783,1635.9l6.3,97.7c2.9,44.7,37.2,80.3,80.6,85.8l48.3-48.3L783,1635.9z"/>
					<path class="st2" d="M869.9,1829.3c-0.4,0-0.8,0-1.2-0.1c-48.6-6.1-86.2-46.1-89.3-95.1l-6.3-97.7c-0.3-4.2,2.1-8,5.9-9.8
						c3.8-1.7,8.2-0.9,11.2,2L925.2,1764c1.9,1.9,2.9,4.4,2.9,7.1s-1.1,5.2-2.9,7.1l-48.3,48.3
						C875,1828.3,872.5,1829.3,869.9,1829.3z M794.7,1661.7l4.6,71.2c2.4,37.8,30.3,68.9,67.1,75.8L904,1771L794.7,1661.7z"/>
				</g>
				<g>
					<polygon class="st7" points="1092.6,1596.6 918.2,1422.1 778.2,1562 783,1635.9 918.2,1771 					"/>
					<path class="st2" d="M918.2,1781c-2.6,0-5.1-1-7.1-2.9l-135.2-135.2c-1.7-1.7-2.8-4-2.9-6.4l-4.7-73.8
						c-0.2-2.9,0.9-5.7,2.9-7.7L911.1,1415c3.9-3.9,10.2-3.9,14.1,0l174.5,174.5c3.9,3.9,3.9,10.2,0,14.1l-174.5,174.5
						C923.3,1780.1,920.7,1781,918.2,1781z M792.7,1631.5l125.5,125.4l160.3-160.3l-160.3-160.3l-129.7,129.7L792.7,1631.5z"/>
				</g>
				<g>
					<polygon class="st7" points="1092.6,1247.6 984.4,1139.3 851.9,1139.3 757.2,1234.1 759,1262.9 918.2,1422.1 					"/>
					<path class="st2" d="M918.2,1432.1c-2.7,0-5.2-1.1-7.1-2.9L751.9,1270c-1.7-1.7-2.8-4-2.9-6.4l-1.9-28.8
						c-0.2-2.9,0.9-5.7,2.9-7.7l94.8-94.8c1.9-1.9,4.4-2.9,7.1-2.9h132.5c2.7,0,5.2,1.1,7.1,2.9l108.3,108.3
						c1.9,1.9,2.9,4.4,2.9,7.1s-1.1,5.2-2.9,7.1l-174.5,174.5C923.4,1431,920.8,1432.1,918.2,1432.1z M768.7,1258.5l149.4,149.4
						l160.3-160.3l-98.3-98.3H856.1l-88.7,88.7L768.7,1258.5z"/>
				</g>
				<g>
					<polygon class="st7" points="759,1262.9 778.2,1562 918.2,1422.1 					"/>
					<path class="st2" d="M778.2,1572c-1.2,0-2.4-0.2-3.5-0.6c-3.7-1.4-6.2-4.8-6.5-8.7L749,1263.6c-0.3-4.2,2.1-8,5.9-9.8
						c3.8-1.7,8.2-0.9,11.2,2L925.2,1415c1.9,1.9,2.9,4.4,2.9,7.1s-1.1,5.2-2.9,7.1l-139.9,139.9C783.4,1571,780.8,1572,778.2,1572z
						 M770.7,1288.7l16.1,250.6L904,1422.1L770.7,1288.7z"/>
				</g>
			</g>
			<g>
				<polygon class="st1" points="762.9,1044.8 1396.7,1678.6 2030.4,1044.8 				"/>
				<path class="st2" d="M1396.7,1688.6c-2.6,0-5.1-1-7.1-2.9l-633.8-633.8c-2.9-2.9-3.7-7.2-2.2-10.9c1.5-3.7,5.2-6.2,9.2-6.2
					h1267.6c4,0,7.7,2.4,9.2,6.2c1.5,3.7,0.7,8-2.2,10.9l-633.8,633.8C1401.8,1687.7,1399.2,1688.6,1396.7,1688.6z M787,1054.8
					l609.7,609.7l609.7-609.7H787z"/>
			</g>
			<g>
				<polygon class="st3" points="970.9,1044.8 1396.7,1470.6 1822.4,1044.8 				"/>
				<path class="st2" d="M1396.7,1480.6c-2.7,0-5.2-1.1-7.1-2.9l-425.8-425.8c-2.9-2.9-3.7-7.2-2.2-10.9s5.2-6.2,9.2-6.2h851.5
					c4,0,7.7,2.4,9.2,6.2c1.5,3.7,0.7,8-2.2,10.9l-425.8,425.8C1401.8,1479.5,1399.3,1480.6,1396.7,1480.6z M995,1054.8l401.6,401.6
					l401.6-401.6H995z"/>
			</g>
			<g>
				<polygon class="st1" points="1169.4,1044.8 1396.7,1272.1 1623.9,1044.8 				"/>
				<path class="st2" d="M1396.7,1282.1c-2.6,0-5.1-1-7.1-2.9l-227.2-227.2c-2.9-2.9-3.7-7.2-2.2-10.9c1.5-3.7,5.2-6.2,9.2-6.2
					h454.4c4,0,7.7,2.4,9.2,6.2c1.5,3.7,0.7,8-2.2,10.9l-227.2,227.2C1401.8,1281.1,1399.2,1282.1,1396.7,1282.1z M1193.6,1054.8
					l203.1,203.1l203.1-203.1H1193.6z"/>
			</g>
		</g>
	</g>
	<g>
		<g>
			<path class="st3" d="M559.3,1814.2H407c-59.7,0-108.6-48.9-108.6-108.6v-382.7c0-59.7,48.9-108.6,108.6-108.6h152.2
				c59.7,0,108.6,48.9,108.6,108.6v382.7C667.8,1765.3,619,1814.2,559.3,1814.2z"/>
			<path class="st2" d="M559.3,1824.2H407c-65.4,0-118.6-53.2-118.6-118.6v-382.7c0-65.4,53.2-118.6,118.6-118.6h152.2
				c65.4,0,118.6,53.2,118.6,118.6v382.7C677.8,1771,624.6,1824.2,559.3,1824.2z M407,1224.3c-54.4,0-98.6,44.2-98.6,98.6v382.7
				c0,54.4,44.2,98.6,98.6,98.6h152.2c54.4,0,98.6-44.2,98.6-98.6v-382.7c0-54.4-44.2-98.6-98.6-98.6H407z"/>
		</g>
		<g>
			<path class="st3" d="M559.3,1814.2H407c-59.7,0-108.6-48.9-108.6-108.6v-382.7c0-59.7,48.9-108.6,108.6-108.6h152.2
				c59.7,0,108.6,48.9,108.6,108.6v382.7C667.8,1765.3,619,1814.2,559.3,1814.2z"/>
			<path class="st2" d="M559.3,1824.2H407c-65.4,0-118.6-53.2-118.6-118.6v-382.7c0-65.4,53.2-118.6,118.6-118.6h152.2
				c65.4,0,118.6,53.2,118.6,118.6v382.7C677.8,1771,624.6,1824.2,559.3,1824.2z M407,1224.3c-54.4,0-98.6,44.2-98.6,98.6v382.7
				c0,54.4,44.2,98.6,98.6,98.6h152.2c54.4,0,98.6-44.2,98.6-98.6v-382.7c0-54.4-44.2-98.6-98.6-98.6H407z"/>
		</g>
		<g>
			<path class="st3" d="M592.5,1214.3H373.8c-12.6,0-23-10.3-23-23v0c0-12.6,10.3-23,23-23h218.6c12.6,0,23,10.3,23,23v0
				C615.4,1204,605.1,1214.3,592.5,1214.3z"/>
			<path class="st2" d="M592.5,1224.3H373.8c-18.2,0-33-14.8-33-33s14.8-33,33-33h218.6c18.2,0,33,14.8,33,33
				S610.6,1224.3,592.5,1224.3z M373.8,1178.4c-7.1,0-13,5.8-13,13c0,7.1,5.8,13,13,13h218.6c7.1,0,13-5.8,13-13c0-7.1-5.8-13-13-13
				H373.8z"/>
		</g>
		<g>
			<path class="st3" d="M592.5,1168.4H373.8c-12.6,0-23-10.3-23-23l0,0c0-12.6,10.3-23,23-23h218.6c12.6,0,23,10.3,23,23l0,0
				C615.4,1158.1,605.1,1168.4,592.5,1168.4z"/>
			<path class="st2" d="M592.5,1178.4H373.8c-18.2,0-33-14.8-33-33s14.8-33,33-33h218.6c18.2,0,33,14.8,33,33
				S610.6,1178.4,592.5,1178.4z M373.8,1132.5c-7.1,0-13,5.8-13,13c0,7.1,5.8,13,13,13h218.6c7.1,0,13-5.8,13-13c0-7.1-5.8-13-13-13
				H373.8z"/>
		</g>
		<g>
			<path class="st8" d="M368.4,1514.3v191.3c0,20.9,17.7,38.6,38.6,38.6h152.2c20.9,0,38.6-17.7,38.6-38.6v-191.3H368.4z"/>
			<path class="st2" d="M559.3,1754.2H407c-26.3,0-48.6-22.3-48.6-48.6v-191.3c0-5.5,4.5-10,10-10h229.4c5.5,0,10,4.5,10,10v191.3
				C607.8,1732,585.6,1754.2,559.3,1754.2z M378.4,1524.3v181.3c0,15.5,13.1,28.6,28.6,28.6h152.2c15.5,0,28.6-13.1,28.6-28.6
				v-181.3H378.4z"/>
		</g>
		<g>
			<path class="st2" d="M505.2,1562.2c-5.5,0-10-4.5-10-10v-503.8c0-4.5,3-8.4,7.3-9.6l132-37.7c5.3-1.5,10.8,1.6,12.4,6.9
				c1.5,5.3-1.6,10.8-6.9,12.4L515.2,1056v496.2C515.2,1557.7,510.7,1562.2,505.2,1562.2z"/>
		</g>
	</g>
	<g>
		<g>
			<path class="st9" d="M2532.7,1548.7l-25.2,12.1c-44.5-43-126.8-50.6-202.7-14s-121.2,105.7-115.3,167.3l-25.2,12.1
				c-18.2,8.8-25.9,30.8-17.1,49l0,0c8.8,18.2,30.8,25.9,49,17.1l25.2-12.1c44.5,43,126.8,50.6,202.7,14s121.2-105.7,115.3-167.3
				l25.2-12.1c18.2-8.8,25.9-30.8,17.1-49l0,0C2572.9,1547.6,2550.9,1539.9,2532.7,1548.7z"/>
			<path class="st2" d="M2325.9,1827.6c-5.2,0-10.4-0.2-15.6-0.6c-35.6-2.7-67.4-15-90.6-34.9l-19.1,9.2
				c-23.2,11.2-51.1,1.4-62.3-21.8c-5.4-11.2-6.1-23.9-2-35.7c4.1-11.8,12.6-21.3,23.8-26.7l19.1-9.2c-1.1-30.5,9.1-63.1,29.1-92.6
				c21.9-32.3,53.8-59.1,92.2-77.7c38.4-18.5,79.3-26.7,118.2-23.8c35.6,2.7,67.4,15,90.6,34.9l19.1-9.2l0,0
				c23.2-11.2,51.1-1.4,62.3,21.8c5.4,11.2,6.1,23.9,2,35.7c-4.1,11.8-12.6,21.3-23.8,26.7l-19.1,9.2c1.1,30.5-9.1,63.1-29.1,92.6
				c-21.9,32.3-53.8,59.1-92.2,77.7C2395.2,1819.3,2360,1827.6,2325.9,1827.6z M2221.5,1770.2c2.5,0,5,1,7,2.8
				c42.5,41,121.2,46.1,191.4,12.2c70.2-33.9,115.3-98.5,109.7-157.3c-0.4-4.2,1.8-8.1,5.6-10l25.2-12.1c6.4-3.1,11.2-8.5,13.6-15.2
				c2.4-6.8,2-14-1.1-20.4c-6.4-13.2-22.4-18.8-35.6-12.4l-25.2,12.1c-3.8,1.8-8.3,1.1-11.3-1.8c-42.5-41-121.2-46.1-191.4-12.2
				c-70.2,33.9-115.3,98.5-109.7,157.3c0.4,4.2-1.8,8.1-5.6,10l-25.2,12.1c-13.2,6.4-18.8,22.4-12.4,35.6
				c3.1,6.4,8.5,11.2,15.2,13.6c6.8,2.4,14,2,20.4-1.1l25.2-12.1C2218.5,1770.5,2220,1770.2,2221.5,1770.2z"/>
		</g>
		<g>
			<circle class="st9" cx="2408.4" cy="1599.7" r="8.8"/>
			<path class="st2" d="M2408.4,1618.5c-10.4,0-18.8-8.4-18.8-18.8s8.4-18.8,18.8-18.8s18.8,8.4,18.8,18.8
				S2418.8,1618.5,2408.4,1618.5z M2408.4,1598.5c-0.7,0-1.2,0.5-1.2,1.2s0.5,1.2,1.2,1.2s1.2-0.5,1.2-1.2
				S2409.1,1598.5,2408.4,1598.5z"/>
		</g>
		<g>
			<circle class="st9" cx="2469.7" cy="1631.1" r="8.8"/>
			<path class="st2" d="M2469.7,1649.9c-10.4,0-18.8-8.4-18.8-18.8s8.4-18.8,18.8-18.8s18.8,8.4,18.8,18.8
				S2480.1,1649.9,2469.7,1649.9z M2469.7,1629.9c-0.7,0-1.2,0.5-1.2,1.2s0.5,1.2,1.2,1.2s1.2-0.5,1.2-1.2
				S2470.3,1629.9,2469.7,1629.9z"/>
		</g>
		<g>
			<circle class="st9" cx="2401.9" cy="1665.1" r="8.8"/>
			<path class="st2" d="M2401.9,1683.9c-10.4,0-18.8-8.4-18.8-18.8s8.4-18.8,18.8-18.8s18.8,8.4,18.8,18.8
				S2412.3,1683.9,2401.9,1683.9z M2401.9,1663.9c-0.7,0-1.2,0.5-1.2,1.2s0.5,1.2,1.2,1.2s1.2-0.5,1.2-1.2
				S2402.6,1663.9,2401.9,1663.9z"/>
		</g>
	</g>
	<g>
		<g>
			<path class="st4" d="M2153,1495.6L2153,1495.6c-32.1-5.8-63.5,3.7-86.9,23.1c-23.4-19.4-54.8-28.9-86.9-23.1h0
				c-57.7,10.3-96.4,66-86,123.6l19.8,110.6c10.3,57.7,66,96.4,123.6,86h0c10.5-1.9,20.4-5.3,29.5-9.9c9.1,4.6,19,8,29.5,9.9h0
				c57.7,10.3,113.3-28.4,123.6-86l19.8-110.6C2249.4,1561.6,2210.7,1506,2153,1495.6z"/>
			<path class="st2" d="M2114.4,1827.6c-6.8,0-13.7-0.6-20.6-1.8c-9.6-1.7-18.9-4.6-27.7-8.7c-8.8,4-18.1,7-27.7,8.7
				c-6.9,1.2-13.8,1.8-20.6,1.8c-55.3,0-104.5-39.6-114.6-96l-19.8-110.6c-5.5-30.5,1.3-61.4,19.2-87c17.8-25.6,44.4-42.7,75-48.2
				c31.2-5.6,63,1.8,88.7,20.3c25.6-18.5,57.5-25.9,88.7-20.3c30.5,5.5,57.1,22.6,75,48.2s24.6,56.5,19.2,87l-19.8,110.6
				C2219,1787.9,2169.7,1827.6,2114.4,1827.6z M1997.8,1504c-5.6,0-11.3,0.5-16.9,1.5c-25.3,4.5-47.3,18.7-62.1,39.9
				c-14.8,21.2-20.4,46.8-15.9,72.1l19.8,110.6c9.4,52.4,59.6,87.4,112,78c9.3-1.7,18.3-4.7,26.7-9c2.9-1.5,6.2-1.5,9.1,0
				c8.4,4.3,17.4,7.3,26.7,9c25.3,4.5,50.9-1.1,72.1-15.9c21.2-14.8,35.4-36.8,39.9-62.1l19.8-110.6c4.5-25.3-1.1-50.9-15.9-72.1
				c-14.8-21.2-36.8-35.4-62.1-39.9l0,0c-28-5-56.7,2.6-78.8,21c-3.7,3.1-9.1,3.1-12.8,0C2042,1511.8,2020.2,1504,1997.8,1504z"/>
		</g>
		<g>
			<path class="st5" d="M2046.5,1404.9c-30.2-25.5-77.7-18.9-77.7-18.9s1.3,48,31.5,73.5c30.2,25.5,77.7,18.9,77.7,18.9
				S2076.6,1430.4,2046.5,1404.9z"/>
			<path class="st2" d="M2063.9,1489.2c-17.9,0-47.9-3.2-70.1-22.1c-33.2-28.1-35-78.7-35-80.9c-0.1-5.1,3.6-9.5,8.6-10.2
				c2.1-0.3,52.4-6.9,85.5,21.2c33.2,28.1,35,78.7,35,80.9c0.1,5.1-3.6,9.5-8.6,10.2C2078.6,1488.4,2072.7,1489.2,2063.9,1489.2z
				 M1979.7,1395.2c2,14.2,8.3,40.8,27,56.6c18.7,15.8,46,17.6,60.3,17.3c-2-14.2-8.3-40.8-27-56.6
				C2021.2,1396.6,1994,1394.9,1979.7,1395.2z"/>
		</g>
		<g>
			<path class="st2" d="M2066.1,1528.8c-5.5,0-10-4.5-10-10c0-48.9,39.8-88.8,88.8-88.8c5.5,0,10,4.5,10,10s-4.5,10-10,10
				c-37.9,0-68.8,30.8-68.8,68.8C2076.1,1524.3,2071.6,1528.8,2066.1,1528.8z"/>
		</g>
	</g>
</g>
</svg>
